<svg id="svg" version="1.1" xmlns="http://www.w3.org/2000/svg" xmlns:xlink="http://www.w3.org/1999/xlink" width="50" height="50" viewBox="0, 0, 400,400"><g id="svgg"><path id="path0" d="M324.812 72.676 C 324.805 73.378,324.966 74.056,325.169 74.181 C 325.373 74.307,325.850 75.352,326.231 76.505 C 326.611 77.657,327.145 78.960,327.417 79.400 C 327.689 79.840,328.126 80.920,328.390 81.800 C 328.653 82.680,329.200 84.300,329.605 85.400 C 331.073 89.387,332.090 92.951,332.613 95.945 C 332.907 97.625,333.360 99.810,333.620 100.800 C 334.336 103.529,334.264 115.049,333.520 116.800 C 333.193 117.570,332.795 118.920,332.636 119.800 C 331.687 125.037,323.894 135.366,319.844 136.752 C 319.600 136.836,319.100 137.166,318.732 137.485 C 315.336 140.438,300.352 145.847,293.400 146.630 C 292.080 146.779,290.703 147.055,290.339 147.243 C 289.278 147.794,270.645 149.867,263.800 150.196 C 258.602 150.446,237.897 150.955,207.200 151.589 C 180.421 152.141,166.355 152.706,157.200 153.598 C 152.910 154.016,147.870 154.471,146.000 154.610 C 144.130 154.749,141.959 155.027,141.176 155.226 C 140.393 155.426,137.513 155.866,134.776 156.204 C 132.039 156.541,128.810 157.072,127.600 157.382 C 126.390 157.693,123.960 158.164,122.200 158.430 C 120.440 158.696,118.691 159.072,118.313 159.264 C 117.935 159.457,116.045 159.963,114.113 160.388 C 108.484 161.628,104.400 162.895,95.600 166.131 C 91.015 167.817,85.905 170.220,81.243 172.882 C 79.396 173.937,77.836 174.800,77.777 174.800 C 77.041 174.800,68.673 180.965,62.851 185.795 C 59.398 188.661,51.871 195.962,49.809 198.447 C 47.375 201.378,44.400 205.220,44.400 205.431 C 44.400 205.564,44.030 206.152,43.579 206.737 C 42.184 208.543,40.830 210.761,39.306 213.741 C 38.501 215.314,37.630 216.870,37.369 217.200 C 37.108 217.530,36.760 218.250,36.595 218.800 C 36.430 219.350,35.976 220.520,35.585 221.400 C 31.264 231.125,28.657 254.711,31.172 261.325 C 31.399 261.923,31.880 264.165,32.240 266.306 C 32.601 268.448,33.038 270.380,33.213 270.600 C 33.388 270.820,33.897 272.350,34.345 274.000 C 35.371 277.778,36.582 281.210,37.829 283.875 C 38.363 285.017,38.803 286.097,38.808 286.275 C 38.812 286.454,39.890 288.670,41.204 291.200 C 42.517 293.730,43.951 296.520,44.390 297.400 C 44.829 298.280,46.175 300.530,47.380 302.400 C 48.585 304.270,49.944 306.430,50.400 307.200 C 52.901 311.426,61.021 321.413,61.425 320.760 C 61.785 320.176,61.726 318.125,61.224 313.800 C 59.151 295.933,63.599 279.473,73.368 268.866 C 77.713 264.148,84.261 259.610,91.567 256.254 C 103.504 250.770,122.188 246.715,140.670 245.596 C 144.592 245.359,148.070 245.089,148.400 244.996 C 150.038 244.537,166.812 243.977,190.400 243.594 C 204.810 243.360,220.560 242.996,225.400 242.786 C 237.953 242.240,255.431 241.235,256.063 241.023 C 256.358 240.924,259.300 240.553,262.600 240.197 C 279.345 238.395,292.179 235.462,307.600 229.916 C 329.021 222.212,349.442 202.194,358.728 179.800 C 365.175 164.251,365.794 144.832,360.384 127.800 C 357.505 118.735,353.811 110.479,349.053 102.473 C 347.704 100.203,346.420 98.039,346.200 97.663 C 343.885 93.715,337.738 85.574,332.560 79.600 C 326.843 73.004,326.650 72.800,326.131 72.800 C 325.861 72.800,325.456 72.485,325.232 72.100 C 324.893 71.518,324.822 71.616,324.812 72.676 " stroke="none" fill="#c42c33" fill-rule="evenodd"></path><path id="path1" d="M190.400 16.780 C 188.090 16.948,185.643 17.271,184.962 17.497 C 184.281 17.723,181.761 18.117,179.362 18.372 C 176.963 18.627,173.650 19.178,172.000 19.598 C 170.350 20.018,167.830 20.476,166.400 20.616 C 164.970 20.756,163.260 21.112,162.600 21.406 C 161.940 21.701,160.140 22.151,158.600 22.406 C 157.060 22.661,154.893 23.197,153.784 23.598 C 152.676 23.998,150.876 24.459,149.784 24.622 C 148.693 24.784,147.439 25.153,146.998 25.440 C 146.557 25.728,145.117 26.236,143.798 26.569 C 140.231 27.470,136.381 28.756,134.800 29.575 C 134.030 29.974,132.793 30.431,132.051 30.592 C 131.308 30.754,130.138 31.209,129.451 31.604 C 128.763 31.999,127.570 32.453,126.800 32.613 C 126.030 32.773,124.977 33.236,124.459 33.642 C 123.942 34.047,122.907 34.494,122.159 34.634 C 121.412 34.774,120.800 35.016,120.800 35.170 C 120.800 35.476,118.204 36.800,117.604 36.800 C 117.401 36.800,116.572 37.250,115.762 37.800 C 114.951 38.350,113.953 38.800,113.544 38.800 C 113.135 38.800,112.800 38.947,112.800 39.126 C 112.800 39.513,110.209 40.800,109.429 40.800 C 109.130 40.800,108.792 41.043,108.678 41.341 C 108.564 41.638,107.780 42.237,106.935 42.671 C 104.192 44.080,102.648 44.989,102.034 45.556 C 101.703 45.861,100.840 46.359,100.116 46.661 C 99.392 46.963,98.800 47.355,98.800 47.531 C 98.800 47.708,98.215 48.158,97.500 48.533 C 96.785 48.908,95.480 49.761,94.600 50.429 C 93.720 51.097,92.431 52.002,91.736 52.440 C 91.040 52.878,90.371 53.499,90.248 53.818 C 90.126 54.138,89.832 54.400,89.595 54.400 C 89.359 54.400,87.482 55.840,85.424 57.600 C 83.366 59.360,81.505 60.800,81.288 60.800 C 81.071 60.800,80.799 61.159,80.685 61.598 C 80.570 62.037,80.193 62.505,79.847 62.637 C 79.075 62.933,72.898 69.069,72.360 70.074 C 72.147 70.473,71.708 70.800,71.386 70.800 C 71.064 70.800,70.800 71.066,70.800 71.391 C 70.800 71.716,70.350 72.276,69.800 72.637 C 69.250 72.997,68.800 73.477,68.800 73.703 C 68.800 73.929,68.305 74.603,67.700 75.203 C 66.592 76.300,65.811 77.262,63.643 80.200 C 62.994 81.080,62.088 82.179,61.631 82.642 C 61.174 83.105,60.800 83.658,60.800 83.870 C 60.800 84.082,60.260 84.861,59.600 85.600 C 58.940 86.339,58.400 87.171,58.400 87.449 C 58.400 87.727,58.085 88.190,57.700 88.477 C 57.315 88.765,56.657 89.675,56.237 90.500 C 55.817 91.325,55.342 92.000,55.180 92.000 C 55.019 92.000,54.777 92.437,54.643 92.972 C 54.509 93.507,54.105 94.238,53.745 94.598 C 53.045 95.298,51.834 97.430,50.393 100.500 C 49.903 101.545,49.344 102.400,49.151 102.400 C 48.958 102.400,48.800 102.735,48.800 103.144 C 48.800 103.553,48.350 104.551,47.800 105.362 C 47.250 106.172,46.800 107.028,46.800 107.264 C 46.800 107.499,46.369 108.526,45.843 109.546 C 45.317 110.566,44.657 112.030,44.377 112.800 C 44.097 113.570,43.648 114.470,43.379 114.800 C 43.109 115.130,42.762 116.030,42.606 116.800 C 42.450 117.570,42.013 118.740,41.634 119.400 C 41.255 120.060,40.719 121.498,40.443 122.595 C 40.167 123.692,39.761 124.807,39.540 125.072 C 39.320 125.338,38.884 126.650,38.572 127.988 C 38.260 129.327,37.753 130.822,37.445 131.311 C 37.138 131.800,36.761 133.100,36.607 134.200 C 36.454 135.300,36.001 137.010,35.601 138.000 C 35.202 138.990,34.673 141.123,34.427 142.740 C 34.181 144.357,33.736 146.157,33.439 146.740 C 33.142 147.323,32.768 149.240,32.607 151.000 C 32.446 152.760,31.996 155.460,31.606 157.000 C 30.548 161.181,28.861 185.710,29.573 186.567 C 30.239 187.370,31.046 187.379,31.349 186.588 C 31.628 185.862,34.671 181.638,37.203 178.461 C 38.194 177.218,39.481 175.570,40.061 174.800 C 40.642 174.030,41.631 172.825,42.259 172.122 C 42.886 171.419,44.296 169.799,45.390 168.522 C 47.493 166.069,61.342 152.121,64.400 149.378 C 66.807 147.218,73.183 141.925,74.266 141.189 C 74.742 140.865,76.534 139.520,78.249 138.200 C 81.857 135.423,81.495 135.677,88.456 131.042 C 91.395 129.085,94.256 127.174,94.812 126.795 C 95.369 126.416,96.539 125.717,97.412 125.241 C 98.286 124.765,99.810 123.909,100.800 123.338 C 104.109 121.430,109.784 118.401,111.200 117.787 C 111.970 117.454,112.870 117.005,113.200 116.789 C 113.530 116.574,114.250 116.208,114.800 115.975 C 115.350 115.742,116.745 115.112,117.900 114.576 C 122.738 112.328,124.253 111.666,125.200 111.385 C 125.750 111.222,126.827 110.753,127.594 110.344 C 128.361 109.935,129.268 109.600,129.609 109.600 C 129.951 109.600,130.944 109.235,131.815 108.789 C 132.687 108.343,134.300 107.723,135.400 107.411 C 137.325 106.865,139.030 106.324,143.100 104.966 C 144.145 104.618,146.507 103.982,148.350 103.554 C 150.192 103.125,151.992 102.620,152.350 102.431 C 152.707 102.241,154.350 101.880,156.000 101.627 C 157.650 101.374,159.838 100.919,160.862 100.616 C 161.887 100.313,164.857 99.858,167.462 99.605 C 170.068 99.352,174.000 98.846,176.200 98.480 C 182.034 97.511,203.467 97.511,208.600 98.479 C 210.580 98.853,213.910 99.370,216.000 99.628 C 218.090 99.886,220.250 100.270,220.800 100.482 C 221.350 100.693,223.240 101.197,225.000 101.602 C 242.778 105.686,260.978 116.984,270.423 129.800 C 272.406 132.491,272.599 132.806,275.400 137.925 C 277.823 142.354,278.304 142.635,282.463 142.060 C 284.078 141.837,286.641 141.544,288.158 141.410 C 289.675 141.276,291.235 140.995,291.625 140.787 C 292.015 140.578,294.104 140.060,296.267 139.636 C 298.430 139.211,300.869 138.579,301.687 138.232 C 302.505 137.884,303.498 137.600,303.893 137.600 C 304.288 137.600,305.252 137.257,306.035 136.837 C 306.817 136.418,308.212 135.849,309.134 135.573 C 310.055 135.296,311.009 134.830,311.254 134.535 C 311.498 134.241,311.907 134.000,312.162 134.000 C 313.851 134.000,322.946 126.551,323.552 124.672 C 323.636 124.412,323.942 123.926,324.232 123.591 C 327.196 120.169,328.802 105.954,326.994 99.150 C 326.622 97.748,326.001 95.250,325.615 93.600 C 325.229 91.950,324.618 89.903,324.257 89.051 C 323.896 88.199,323.594 87.209,323.587 86.851 C 323.581 86.493,323.132 85.300,322.591 84.200 C 322.050 83.100,321.606 81.995,321.604 81.745 C 321.602 81.495,321.037 80.055,320.349 78.545 C 319.660 77.035,318.663 74.810,318.133 73.600 C 317.603 72.390,316.996 71.130,316.784 70.800 C 316.572 70.470,316.206 69.750,315.972 69.200 C 315.737 68.650,314.530 66.144,313.290 63.631 C 310.749 58.483,310.137 57.801,303.400 52.611 C 301.860 51.424,300.232 50.127,299.783 49.727 C 299.334 49.327,298.524 48.772,297.983 48.493 C 297.442 48.214,296.280 47.443,295.400 46.779 C 292.918 44.907,290.788 43.453,289.644 42.848 C 289.070 42.545,288.240 41.980,287.800 41.594 C 287.360 41.208,286.627 40.779,286.171 40.641 C 285.714 40.504,284.994 40.078,284.571 39.695 C 284.147 39.313,283.170 38.681,282.400 38.291 C 281.630 37.901,280.100 37.065,279.000 36.432 C 277.900 35.800,276.280 34.908,275.400 34.451 C 274.520 33.994,273.530 33.454,273.200 33.251 C 272.870 33.048,271.835 32.566,270.900 32.180 C 269.965 31.794,269.200 31.346,269.200 31.184 C 269.200 31.022,268.588 30.774,267.841 30.634 C 267.093 30.494,266.058 30.047,265.541 29.642 C 265.023 29.236,263.973 28.767,263.206 28.600 C 262.439 28.432,261.435 28.048,260.974 27.746 C 260.513 27.444,259.161 26.910,257.968 26.560 C 256.776 26.209,255.530 25.692,255.200 25.412 C 254.870 25.131,253.880 24.777,253.000 24.625 C 252.120 24.473,250.680 24.023,249.800 23.626 C 248.920 23.229,247.125 22.679,245.812 22.404 C 244.499 22.129,243.059 21.676,242.612 21.398 C 242.165 21.119,240.853 20.775,239.696 20.632 C 238.538 20.488,236.468 20.035,235.096 19.625 C 233.723 19.214,230.800 18.663,228.600 18.400 C 226.400 18.137,223.880 17.666,223.000 17.353 C 221.118 16.684,197.437 16.268,190.400 16.780 M368.457 207.700 C 368.198 208.195,367.443 209.320,366.779 210.200 C 366.116 211.080,365.127 212.475,364.581 213.300 C 364.036 214.125,363.412 214.800,363.195 214.800 C 362.978 214.800,362.800 215.001,362.800 215.247 C 362.800 215.493,362.305 216.279,361.700 216.993 C 361.095 217.707,360.150 218.881,359.600 219.602 C 358.362 221.224,356.879 222.999,355.709 224.259 C 355.219 224.786,354.628 225.574,354.395 226.009 C 354.162 226.444,353.708 226.800,353.386 226.800 C 353.064 226.800,352.800 227.057,352.800 227.371 C 352.800 227.685,352.350 228.296,351.800 228.729 C 351.250 229.161,350.798 229.669,350.795 229.858 C 350.792 230.046,347.417 233.489,343.295 237.510 C 339.173 241.530,335.343 245.265,334.785 245.810 C 334.227 246.354,333.650 246.800,333.504 246.800 C 333.357 246.800,332.439 247.610,331.463 248.600 C 330.487 249.590,329.497 250.400,329.264 250.400 C 329.031 250.400,328.696 250.657,328.520 250.971 C 328.223 251.501,325.530 253.680,324.035 254.600 C 323.678 254.820,322.939 255.413,322.393 255.919 C 320.608 257.570,320.212 257.883,319.313 258.352 C 318.825 258.606,317.944 259.261,317.354 259.807 C 316.765 260.353,316.046 260.800,315.756 260.800 C 315.466 260.800,315.035 261.160,314.800 261.600 C 314.565 262.040,314.137 262.400,313.849 262.400 C 313.562 262.400,312.893 262.769,312.363 263.220 C 311.041 264.346,308.804 265.880,307.600 266.487 C 307.050 266.764,306.337 267.243,306.016 267.551 C 305.695 267.859,304.840 268.359,304.116 268.661 C 303.392 268.963,302.800 269.369,302.800 269.562 C 302.800 269.755,302.115 270.187,301.277 270.522 C 300.440 270.857,299.518 271.417,299.228 271.766 C 298.939 272.115,298.499 272.403,298.251 272.407 C 298.003 272.411,297.008 272.951,296.040 273.607 C 295.072 274.263,294.029 274.800,293.723 274.800 C 293.417 274.800,292.796 275.145,292.344 275.567 C 291.891 275.988,291.093 276.440,290.571 276.572 C 290.048 276.703,288.961 277.258,288.155 277.805 C 287.348 278.352,286.451 278.800,286.162 278.800 C 285.872 278.800,284.972 279.250,284.162 279.800 C 283.351 280.350,282.376 280.800,281.993 280.800 C 281.611 280.800,281.098 281.040,280.855 281.334 C 280.611 281.628,279.644 282.110,278.706 282.405 C 277.768 282.701,276.730 283.162,276.400 283.432 C 276.070 283.701,274.990 284.150,274.000 284.430 C 273.010 284.709,271.930 285.154,271.600 285.418 C 271.270 285.683,270.280 286.114,269.400 286.376 C 268.520 286.639,267.170 287.186,266.400 287.593 C 265.630 287.999,264.280 288.464,263.400 288.626 C 262.520 288.788,261.440 289.152,261.000 289.434 C 260.560 289.717,259.300 290.160,258.200 290.419 C 257.100 290.678,255.480 291.222,254.600 291.628 C 253.720 292.034,252.190 292.480,251.200 292.620 C 250.210 292.760,248.801 293.143,248.069 293.471 C 247.337 293.799,245.537 294.245,244.069 294.463 C 242.601 294.680,241.069 295.037,240.663 295.255 C 239.618 295.819,234.251 296.800,232.215 296.800 C 231.272 296.800,229.723 297.074,228.773 297.410 C 227.801 297.752,224.324 298.194,220.823 298.420 C 217.400 298.640,213.160 298.996,211.400 299.211 C 207.275 299.714,196.713 299.713,192.600 299.209 C 190.840 298.994,187.150 298.645,184.400 298.434 C 181.650 298.222,178.500 297.783,177.400 297.456 C 176.300 297.130,173.968 296.666,172.219 296.424 C 170.469 296.183,168.669 295.745,168.219 295.451 C 167.768 295.158,166.500 294.787,165.400 294.628 C 164.300 294.469,162.805 293.992,162.077 293.569 C 161.350 293.146,160.350 292.800,159.856 292.800 C 159.361 292.800,158.067 292.368,156.979 291.841 C 155.890 291.313,154.339 290.674,153.532 290.420 C 152.725 290.167,151.848 289.698,151.583 289.380 C 151.318 289.061,150.789 288.800,150.407 288.800 C 150.024 288.800,149.089 288.378,148.329 287.862 C 147.569 287.346,146.505 286.813,145.965 286.677 C 145.426 286.542,144.623 286.109,144.181 285.715 C 143.739 285.322,142.708 284.657,141.889 284.237 C 141.070 283.817,140.400 283.322,140.400 283.137 C 140.400 282.952,140.155 282.800,139.855 282.800 C 139.325 282.800,137.000 281.190,135.415 279.725 C 134.984 279.326,134.418 278.910,134.159 278.800 C 133.142 278.369,128.173 273.638,125.546 270.600 C 121.745 266.204,121.910 266.412,120.625 264.400 C 119.992 263.410,119.156 262.129,118.765 261.554 C 118.375 260.979,117.796 259.899,117.478 259.154 C 117.160 258.409,116.473 257.322,115.950 256.738 L 115.000 255.676 111.000 256.418 C 108.800 256.826,106.010 257.523,104.800 257.967 C 103.590 258.411,102.295 258.780,101.923 258.787 C 101.550 258.794,100.650 259.143,99.923 259.561 C 99.195 259.980,97.970 260.453,97.200 260.613 C 96.430 260.773,95.377 261.236,94.859 261.642 C 94.342 262.047,93.319 262.492,92.586 262.629 C 91.852 262.767,90.943 263.221,90.564 263.640 C 90.186 264.058,89.695 264.400,89.473 264.400 C 88.227 264.400,80.375 270.355,77.989 273.109 C 75.437 276.055,74.782 276.885,74.331 277.746 C 74.085 278.215,73.639 278.744,73.342 278.920 C 73.044 279.096,72.800 279.566,72.800 279.964 C 72.800 280.362,72.369 281.324,71.841 282.101 C 71.314 282.878,70.756 284.118,70.602 284.857 C 70.448 285.596,70.000 286.761,69.606 287.447 C 69.212 288.133,68.763 289.663,68.608 290.847 C 68.454 292.031,67.983 294.573,67.563 296.496 C 66.532 301.217,66.530 309.159,67.558 314.823 C 67.975 317.120,68.445 320.350,68.602 322.000 C 69.170 327.966,70.315 330.419,74.295 334.197 C 79.190 338.845,79.138 338.798,81.594 340.783 C 82.807 341.763,83.890 342.664,84.000 342.784 C 84.110 342.904,85.235 343.788,86.500 344.750 C 87.765 345.711,88.800 346.655,88.800 346.849 C 88.800 347.042,88.999 347.200,89.243 347.200 C 89.608 347.200,92.151 349.015,94.285 350.798 C 94.552 351.021,95.227 351.412,95.785 351.666 C 96.343 351.920,96.800 352.271,96.800 352.445 C 96.800 352.620,97.414 353.054,98.164 353.410 C 98.914 353.765,99.842 354.404,100.226 354.828 C 100.610 355.253,101.153 355.600,101.433 355.600 C 101.714 355.600,102.181 355.837,102.471 356.126 C 102.762 356.416,103.872 357.181,104.937 357.826 C 106.003 358.472,107.533 359.411,108.337 359.914 C 109.142 360.417,110.340 361.109,111.000 361.453 C 111.660 361.797,113.280 362.682,114.600 363.420 C 115.920 364.159,117.855 365.153,118.900 365.631 C 119.945 366.108,120.800 366.613,120.800 366.752 C 120.800 366.891,121.565 367.243,122.500 367.534 C 123.435 367.825,124.470 368.296,124.800 368.581 C 125.130 368.866,126.116 369.329,126.990 369.610 C 127.865 369.892,129.125 370.454,129.790 370.859 C 130.456 371.265,131.270 371.599,131.600 371.602 C 131.930 371.605,133.100 372.050,134.200 372.591 C 135.300 373.132,136.477 373.581,136.815 373.587 C 137.154 373.594,138.104 373.943,138.927 374.363 C 139.750 374.783,141.364 375.347,142.512 375.617 C 143.660 375.887,145.050 376.333,145.600 376.608 C 146.150 376.883,147.680 377.327,149.000 377.594 C 150.320 377.861,151.940 378.323,152.600 378.620 C 153.260 378.917,155.240 379.421,157.000 379.740 C 158.760 380.059,161.640 380.602,163.400 380.947 C 176.045 383.428,199.594 384.494,205.133 382.836 C 205.865 382.617,209.015 382.146,212.133 381.791 C 215.250 381.435,219.330 380.816,221.200 380.415 C 223.070 380.013,225.761 379.563,227.180 379.414 C 228.600 379.264,230.091 378.965,230.496 378.749 C 230.900 378.533,232.618 378.097,234.315 377.782 C 238.465 377.010,245.983 374.994,252.200 372.985 C 253.300 372.630,255.280 372.011,256.600 371.611 C 257.920 371.211,259.540 370.596,260.200 370.244 C 260.860 369.893,261.611 369.604,261.870 369.602 C 262.405 369.600,267.789 367.515,270.226 366.366 C 271.121 365.945,271.984 365.600,272.145 365.600 C 272.579 365.600,285.876 358.975,288.200 357.601 C 289.300 356.950,290.920 356.050,291.800 355.599 C 292.680 355.148,293.850 354.450,294.400 354.047 C 294.950 353.644,297.554 351.894,300.187 350.157 C 302.820 348.421,305.250 346.767,305.587 346.483 C 305.924 346.198,308.090 344.439,310.400 342.573 C 323.928 331.644,335.841 318.222,343.926 304.800 C 347.551 298.781,348.473 297.107,351.191 291.600 C 355.440 282.992,356.216 281.228,358.572 274.800 C 359.177 273.150,360.006 270.900,360.414 269.800 C 360.823 268.700,361.426 266.810,361.756 265.600 C 362.086 264.390,362.612 262.590,362.925 261.600 C 363.746 258.997,364.789 254.731,365.614 250.600 C 366.009 248.620,366.516 246.522,366.742 245.937 C 366.967 245.353,367.267 243.733,367.408 242.337 C 367.549 240.942,368.001 237.820,368.413 235.400 C 369.348 229.916,370.000 220.980,370.000 213.658 C 370.000 206.888,369.630 205.459,368.457 207.700 " stroke="none" fill="#262525" fill-rule="evenodd"></path><path id="path3" d="M200.400 15.013 C 199.850 15.088,196.340 15.355,192.600 15.607 C 185.763 16.067,174.264 17.711,167.200 19.239 C 155.423 21.785,152.185 22.622,143.400 25.384 C 96.555 40.116,60.866 70.954,43.394 111.800 C 33.867 134.070,28.482 158.743,28.272 181.075 C 28.174 191.538,28.861 191.997,33.910 184.843 C 36.115 181.719,38.489 178.668,43.144 172.975 C 52.025 162.114,70.423 144.800,79.982 138.308 C 80.542 137.928,82.260 136.707,83.800 135.595 C 86.605 133.569,90.394 130.986,91.693 130.212 C 92.074 129.986,94.504 128.514,97.093 126.941 C 104.310 122.559,111.707 118.654,118.900 115.431 C 120.165 114.864,122.145 113.973,123.300 113.451 C 124.455 112.928,126.072 112.285,126.894 112.021 C 127.716 111.757,128.492 111.375,128.618 111.171 C 128.744 110.967,129.121 110.800,129.455 110.800 C 129.790 110.800,131.174 110.368,132.532 109.841 C 164.601 97.378,210.224 95.366,233.400 105.392 C 234.060 105.677,235.050 106.043,235.600 106.203 C 238.990 107.194,248.808 112.269,253.046 115.222 C 262.869 122.064,268.874 128.486,273.787 137.400 C 277.299 143.772,277.806 144.193,281.249 143.594 C 282.432 143.388,285.290 142.945,287.600 142.608 C 302.555 140.431,314.858 135.473,321.394 128.988 C 323.294 127.104,326.400 122.914,326.400 122.237 C 326.400 122.082,326.744 121.201,327.164 120.278 C 329.455 115.249,329.446 103.148,327.146 94.600 C 325.509 88.516,322.149 79.008,321.209 77.800 C 321.038 77.580,320.765 76.950,320.602 76.400 C 320.279 75.309,317.096 68.522,313.943 62.200 C 311.756 57.814,311.132 57.132,304.758 52.146 C 277.942 31.171,247.576 18.390,218.400 15.801 C 211.790 15.214,202.053 14.788,200.400 15.013 M223.000 17.353 C 223.880 17.666,226.400 18.137,228.600 18.400 C 230.800 18.663,233.723 19.214,235.096 19.625 C 236.468 20.035,238.538 20.488,239.696 20.632 C 240.853 20.775,242.165 21.119,242.612 21.398 C 243.059 21.676,244.499 22.129,245.812 22.404 C 247.125 22.679,248.920 23.229,249.800 23.626 C 250.680 24.023,252.120 24.473,253.000 24.625 C 253.880 24.777,254.870 25.131,255.200 25.412 C 255.530 25.692,256.776 26.209,257.968 26.560 C 259.161 26.910,260.513 27.444,260.974 27.746 C 261.435 28.048,262.439 28.432,263.206 28.600 C 263.973 28.767,265.023 29.236,265.541 29.642 C 266.058 30.047,267.093 30.494,267.841 30.634 C 268.588 30.774,269.200 31.022,269.200 31.184 C 269.200 31.346,269.965 31.794,270.900 32.180 C 271.835 32.566,272.870 33.048,273.200 33.251 C 273.530 33.454,274.520 33.994,275.400 34.451 C 276.280 34.908,277.900 35.800,279.000 36.432 C 280.100 37.065,281.630 37.901,282.400 38.291 C 283.170 38.681,284.147 39.313,284.571 39.695 C 284.994 40.078,285.714 40.504,286.171 40.641 C 286.627 40.779,287.360 41.208,287.800 41.594 C 288.240 41.980,289.070 42.545,289.644 42.848 C 290.788 43.453,292.918 44.907,295.400 46.779 C 296.280 47.443,297.442 48.214,297.983 48.493 C 298.524 48.772,299.334 49.327,299.783 49.727 C 300.232 50.127,301.860 51.424,303.400 52.611 C 310.137 57.801,310.749 58.483,313.290 63.631 C 314.530 66.144,315.737 68.650,315.972 69.200 C 316.206 69.750,316.572 70.470,316.784 70.800 C 316.996 71.130,317.603 72.390,318.133 73.600 C 318.663 74.810,319.660 77.035,320.349 78.545 C 321.037 80.055,321.602 81.495,321.604 81.745 C 321.606 81.995,322.050 83.100,322.591 84.200 C 323.132 85.300,323.581 86.493,323.587 86.851 C 323.594 87.209,323.896 88.199,324.257 89.051 C 324.618 89.903,325.229 91.950,325.615 93.600 C 326.001 95.250,326.622 97.748,326.994 99.150 C 328.802 105.954,327.196 120.169,324.232 123.591 C 323.942 123.926,323.636 124.412,323.552 124.672 C 322.946 126.551,313.851 134.000,312.162 134.000 C 311.907 134.000,311.498 134.241,311.254 134.535 C 311.009 134.830,310.055 135.296,309.134 135.573 C 308.212 135.849,306.817 136.418,306.035 136.837 C 305.252 137.257,304.288 137.600,303.893 137.600 C 303.498 137.600,302.505 137.884,301.687 138.232 C 300.869 138.579,298.430 139.211,296.267 139.636 C 294.104 140.060,292.015 140.578,291.625 140.787 C 291.235 140.995,289.675 141.276,288.158 141.410 C 286.641 141.544,284.078 141.837,282.463 142.060 C 278.304 142.635,277.823 142.354,275.400 137.925 C 272.599 132.806,272.406 132.491,270.423 129.800 C 266.319 124.232,258.967 117.558,252.000 113.078 C 246.930 109.817,240.484 106.626,235.000 104.662 C 230.169 102.932,228.296 102.359,225.000 101.602 C 223.240 101.197,221.350 100.693,220.800 100.482 C 220.250 100.270,218.090 99.886,216.000 99.628 C 213.910 99.370,210.580 98.853,208.600 98.479 C 203.467 97.511,182.034 97.511,176.200 98.480 C 174.000 98.846,170.068 99.352,167.462 99.605 C 164.857 99.858,161.887 100.313,160.862 100.616 C 159.838 100.919,157.650 101.374,156.000 101.627 C 154.350 101.880,152.707 102.241,152.350 102.431 C 151.992 102.620,150.192 103.125,148.350 103.554 C 146.507 103.982,144.145 104.618,143.100 104.966 C 139.030 106.324,137.325 106.865,135.400 107.411 C 134.300 107.723,132.687 108.343,131.815 108.789 C 130.944 109.235,129.951 109.600,129.609 109.600 C 129.268 109.600,128.361 109.935,127.594 110.344 C 126.827 110.753,125.750 111.222,125.200 111.385 C 124.253 111.666,122.738 112.328,117.900 114.576 C 116.745 115.112,115.350 115.742,114.800 115.975 C 114.250 116.208,113.530 116.574,113.200 116.789 C 112.870 117.005,111.970 117.454,111.200 117.787 C 109.784 118.401,104.109 121.430,100.800 123.338 C 99.810 123.909,98.286 124.765,97.412 125.241 C 96.539 125.717,95.369 126.416,94.812 126.795 C 94.256 127.174,91.395 129.085,88.456 131.042 C 81.495 135.677,81.857 135.423,78.249 138.200 C 76.534 139.520,74.742 140.865,74.266 141.189 C 73.183 141.925,66.807 147.218,64.400 149.378 C 61.342 152.121,47.493 166.069,45.390 168.522 C 44.296 169.799,42.886 171.419,42.259 172.122 C 41.631 172.825,40.642 174.030,40.061 174.800 C 39.481 175.570,38.194 177.218,37.203 178.461 C 34.671 181.638,31.628 185.862,31.349 186.588 C 31.046 187.379,30.239 187.370,29.573 186.567 C 28.861 185.710,30.548 161.181,31.606 157.000 C 31.996 155.460,32.446 152.760,32.607 151.000 C 32.768 149.240,33.142 147.323,33.439 146.740 C 33.736 146.157,34.181 144.357,34.427 142.740 C 34.673 141.123,35.202 138.990,35.601 138.000 C 36.001 137.010,36.454 135.300,36.607 134.200 C 36.761 133.100,37.138 131.800,37.445 131.311 C 37.753 130.822,38.260 129.327,38.572 127.988 C 38.884 126.650,39.320 125.338,39.540 125.072 C 39.761 124.807,40.167 123.692,40.443 122.595 C 40.719 121.498,41.255 120.060,41.634 119.400 C 42.013 118.740,42.450 117.570,42.606 116.800 C 42.762 116.030,43.109 115.130,43.379 114.800 C 43.648 114.470,44.097 113.570,44.377 112.800 C 44.657 112.030,45.317 110.566,45.843 109.546 C 46.369 108.526,46.800 107.499,46.800 107.264 C 46.800 107.028,47.250 106.172,47.800 105.362 C 48.350 104.551,48.800 103.553,48.800 103.144 C 48.800 102.735,48.958 102.400,49.151 102.400 C 49.344 102.400,49.903 101.545,50.393 100.500 C 51.834 97.430,53.045 95.298,53.745 94.598 C 54.105 94.238,54.509 93.507,54.643 92.972 C 54.777 92.437,55.019 92.000,55.180 92.000 C 55.342 92.000,55.817 91.325,56.237 90.500 C 56.657 89.675,57.315 88.765,57.700 88.477 C 58.085 88.190,58.400 87.727,58.400 87.449 C 58.400 87.171,58.940 86.339,59.600 85.600 C 60.260 84.861,60.800 84.082,60.800 83.870 C 60.800 83.658,61.174 83.105,61.631 82.642 C 62.088 82.179,62.994 81.080,63.643 80.200 C 65.811 77.262,66.592 76.300,67.700 75.203 C 68.305 74.603,68.800 73.929,68.800 73.703 C 68.800 73.477,69.250 72.997,69.800 72.637 C 70.350 72.276,70.800 71.716,70.800 71.391 C 70.800 71.066,71.064 70.800,71.386 70.800 C 71.708 70.800,72.147 70.473,72.360 70.074 C 72.898 69.069,79.075 62.933,79.847 62.637 C 80.193 62.505,80.570 62.037,80.685 61.598 C 80.799 61.159,81.071 60.800,81.288 60.800 C 81.505 60.800,83.366 59.360,85.424 57.600 C 87.482 55.840,89.359 54.400,89.595 54.400 C 89.832 54.400,90.126 54.138,90.248 53.818 C 90.371 53.499,91.040 52.878,91.736 52.440 C 92.431 52.002,93.720 51.097,94.600 50.429 C 95.480 49.761,96.785 48.908,97.500 48.533 C 98.215 48.158,98.800 47.708,98.800 47.531 C 98.800 47.355,99.392 46.963,100.116 46.661 C 100.840 46.359,101.703 45.861,102.034 45.556 C 102.648 44.989,104.192 44.080,106.935 42.671 C 107.780 42.237,108.564 41.638,108.678 41.341 C 108.792 41.043,109.130 40.800,109.429 40.800 C 110.209 40.800,112.800 39.513,112.800 39.126 C 112.800 38.947,113.135 38.800,113.544 38.800 C 113.953 38.800,114.951 38.350,115.762 37.800 C 116.572 37.250,117.401 36.800,117.604 36.800 C 118.204 36.800,120.800 35.476,120.800 35.170 C 120.800 35.016,121.412 34.774,122.159 34.634 C 122.907 34.494,123.942 34.047,124.459 33.642 C 124.977 33.236,126.030 32.773,126.800 32.613 C 127.570 32.453,128.763 31.999,129.451 31.604 C 130.138 31.209,131.308 30.754,132.051 30.592 C 132.793 30.431,134.030 29.974,134.800 29.575 C 136.381 28.756,140.231 27.470,143.798 26.569 C 145.117 26.236,146.557 25.728,146.998 25.440 C 147.439 25.153,148.693 24.784,149.784 24.622 C 150.876 24.459,152.676 23.998,153.784 23.598 C 154.893 23.197,157.060 22.661,158.600 22.406 C 160.140 22.151,161.940 21.701,162.600 21.406 C 163.260 21.112,164.970 20.756,166.400 20.616 C 167.830 20.476,170.350 20.018,172.000 19.598 C 173.650 19.178,176.963 18.627,179.362 18.372 C 181.761 18.117,184.281 17.723,184.962 17.497 C 188.480 16.328,219.782 16.210,223.000 17.353 M324.575 71.756 C 324.436 72.311,324.415 72.998,324.529 73.283 C 324.643 73.567,324.751 73.271,324.768 72.624 C 324.798 71.508,324.829 71.487,325.367 72.223 C 325.679 72.650,326.024 72.909,326.133 72.799 C 326.242 72.690,325.993 72.183,325.580 71.673 L 324.829 70.747 324.575 71.756 M332.233 79.100 C 334.156 81.355,335.807 83.200,335.902 83.200 C 336.139 83.200,333.303 79.863,330.803 77.200 C 329.666 75.990,330.310 76.845,332.233 79.100 M342.032 91.600 C 343.503 93.697,344.603 94.917,343.744 93.500 C 343.008 92.284,340.707 89.200,340.537 89.200 C 340.434 89.200,341.106 90.280,342.032 91.600 M330.863 90.200 C 330.862 90.420,331.103 91.230,331.400 92.000 C 331.697 92.770,331.945 93.130,331.952 92.800 C 331.958 92.470,331.717 91.660,331.414 91.000 C 331.112 90.340,330.864 89.980,330.863 90.200 M344.800 95.600 C 345.270 96.260,345.744 96.800,345.854 96.800 C 345.964 96.800,345.670 96.260,345.200 95.600 C 344.730 94.940,344.256 94.400,344.146 94.400 C 344.036 94.400,344.330 94.940,344.800 95.600 M346.000 97.328 C 346.000 97.575,347.874 100.422,348.277 100.790 C 348.404 100.905,348.277 100.550,347.995 100.000 C 347.409 98.860,346.000 96.973,346.000 97.328 M333.044 99.800 C 333.373 101.271,333.602 101.590,333.594 100.567 C 333.591 100.145,333.405 99.530,333.182 99.200 C 332.885 98.762,332.848 98.924,333.044 99.800 M333.701 103.000 C 333.705 103.880,333.787 104.193,333.883 103.695 C 333.979 103.198,333.975 102.478,333.875 102.095 C 333.775 101.713,333.696 102.120,333.701 103.000 M334.124 109.000 C 334.126 110.320,334.201 110.812,334.290 110.093 C 334.379 109.374,334.377 108.294,334.286 107.693 C 334.195 107.092,334.122 107.680,334.124 109.000 M353.078 109.795 C 353.444 110.562,353.814 111.119,353.901 111.032 C 354.084 110.849,352.870 108.400,352.596 108.400 C 352.495 108.400,352.712 109.028,353.078 109.795 M333.533 115.000 C 333.393 115.880,333.168 116.960,333.034 117.400 C 332.899 117.840,333.071 117.592,333.416 116.850 C 333.761 116.107,333.986 115.027,333.915 114.450 C 333.812 113.603,333.738 113.710,333.533 115.000 M358.028 120.892 C 357.982 121.365,359.286 124.448,359.458 124.275 C 359.545 124.188,359.266 123.325,358.837 122.358 C 358.408 121.391,358.044 120.731,358.028 120.892 M331.257 122.857 C 330.975 123.309,330.832 123.766,330.940 123.873 C 331.047 123.981,331.344 123.678,331.600 123.200 C 332.205 122.070,331.924 121.790,331.257 122.857 M329.494 126.503 L 328.788 127.800 329.594 126.856 C 330.280 126.052,330.646 125.194,330.300 125.203 C 330.245 125.204,329.882 125.789,329.494 126.503 M326.295 130.800 C 325.505 131.680,324.995 132.400,325.162 132.400 C 325.329 132.400,326.045 131.680,326.752 130.800 C 327.459 129.920,327.969 129.200,327.884 129.200 C 327.800 129.200,327.085 129.920,326.295 130.800 M310.624 141.413 C 310.196 141.736,310.027 142.000,310.247 142.000 C 310.467 142.000,310.996 141.736,311.424 141.413 C 311.851 141.090,312.020 140.825,311.800 140.825 C 311.580 140.825,311.051 141.090,310.624 141.413 M363.701 143.000 C 363.705 143.880,363.787 144.193,363.883 143.695 C 363.979 143.198,363.975 142.478,363.875 142.095 C 363.775 141.713,363.696 142.120,363.701 143.000 M305.200 143.400 C 304.650 143.714,304.380 143.972,304.600 143.972 C 304.820 143.972,305.450 143.714,306.000 143.400 C 306.550 143.086,306.820 142.828,306.600 142.828 C 306.380 142.828,305.750 143.086,305.200 143.400 M289.000 147.200 L 288.200 147.544 289.000 147.566 C 289.440 147.578,290.070 147.413,290.400 147.200 C 291.195 146.686,290.196 146.686,289.000 147.200 M364.158 152.200 C 364.158 155.280,364.221 156.487,364.297 154.882 C 364.373 153.278,364.373 150.758,364.296 149.282 C 364.219 147.807,364.157 149.120,364.158 152.200 M282.900 148.276 C 283.285 148.376,283.915 148.376,284.300 148.276 C 284.685 148.175,284.370 148.093,283.600 148.093 C 282.830 148.093,282.515 148.175,282.900 148.276 M279.300 148.676 C 279.685 148.776,280.315 148.776,280.700 148.676 C 281.085 148.575,280.770 148.493,280.000 148.493 C 279.230 148.493,278.915 148.575,279.300 148.676 M272.000 149.200 C 270.375 149.453,270.336 149.482,271.600 149.505 C 272.370 149.519,273.900 149.390,275.000 149.218 C 276.892 148.924,276.913 148.907,275.400 148.914 C 274.520 148.917,272.990 149.046,272.000 149.200 M267.305 149.887 C 267.914 149.979,268.814 149.977,269.305 149.882 C 269.797 149.787,269.300 149.711,268.200 149.714 C 267.100 149.717,266.697 149.795,267.305 149.887 M259.312 150.295 C 260.364 150.377,261.984 150.376,262.912 150.292 C 263.840 150.208,262.980 150.141,261.000 150.142 C 259.020 150.143,258.260 150.212,259.312 150.295 M242.917 150.697 C 244.411 150.774,246.751 150.774,248.117 150.696 C 249.482 150.618,248.260 150.555,245.400 150.555 C 242.540 150.556,241.422 150.620,242.917 150.697 M209.200 151.200 L 201.000 151.425 208.800 151.457 C 213.090 151.475,220.290 151.368,224.800 151.219 L 233.000 150.948 225.200 150.962 C 220.910 150.969,213.710 151.076,209.200 151.200 M189.119 151.898 C 190.944 151.972,193.824 151.972,195.519 151.897 C 197.214 151.822,195.720 151.761,192.200 151.762 C 188.680 151.762,187.294 151.824,189.119 151.898 M175.700 152.294 C 176.745 152.376,178.455 152.376,179.500 152.294 C 180.545 152.212,179.690 152.144,177.600 152.144 C 175.510 152.144,174.655 152.212,175.700 152.294 M167.907 152.690 C 168.626 152.779,169.706 152.777,170.307 152.686 C 170.908 152.595,170.320 152.522,169.000 152.524 C 167.680 152.526,167.188 152.601,167.907 152.690 M157.800 153.218 C 156.828 153.403,157.535 153.439,159.600 153.310 C 161.470 153.193,163.075 153.030,163.167 152.949 C 163.449 152.697,159.495 152.896,157.800 153.218 M153.100 153.882 C 153.595 153.978,154.405 153.978,154.900 153.882 C 155.395 153.787,154.990 153.709,154.000 153.709 C 153.010 153.709,152.605 153.787,153.100 153.882 M148.700 154.282 C 149.195 154.378,150.005 154.378,150.500 154.282 C 150.995 154.187,150.590 154.109,149.600 154.109 C 148.610 154.109,148.205 154.187,148.700 154.282 M144.100 154.676 C 144.485 154.776,145.115 154.776,145.500 154.676 C 145.885 154.575,145.570 154.493,144.800 154.493 C 144.030 154.493,143.715 154.575,144.100 154.676 M138.200 155.408 C 136.769 155.709,136.285 155.915,137.000 155.918 C 137.660 155.921,139.100 155.692,140.200 155.409 C 142.770 154.749,141.336 154.748,138.200 155.408 M126.000 157.400 C 125.010 157.687,124.560 157.925,125.000 157.930 C 125.440 157.935,126.520 157.701,127.400 157.411 C 129.471 156.729,128.349 156.720,126.000 157.400 M116.600 159.411 C 115.720 159.701,115.360 159.944,115.800 159.951 C 116.240 159.958,117.140 159.717,117.800 159.414 C 119.312 158.722,118.696 158.721,116.600 159.411 M363.701 161.400 C 363.705 162.280,363.787 162.593,363.883 162.095 C 363.979 161.598,363.975 160.878,363.875 160.495 C 363.775 160.113,363.696 160.520,363.701 161.400 M108.800 161.400 C 108.030 161.697,107.670 161.945,108.000 161.952 C 108.330 161.958,109.140 161.717,109.800 161.414 C 111.345 160.707,110.626 160.697,108.800 161.400 M102.200 163.414 C 101.540 163.717,101.270 163.966,101.600 163.968 C 101.930 163.970,102.650 163.714,103.200 163.400 C 104.465 162.677,103.789 162.687,102.200 163.414 M96.800 165.400 C 96.250 165.714,95.980 165.972,96.200 165.972 C 96.420 165.972,97.050 165.714,97.600 165.400 C 98.150 165.086,98.420 164.828,98.200 164.828 C 97.980 164.828,97.350 165.086,96.800 165.400 M362.600 166.800 C 362.448 167.491,362.407 168.141,362.509 168.242 C 362.611 168.344,362.809 167.853,362.950 167.150 C 363.283 165.483,362.960 165.160,362.600 166.800 M80.000 173.236 C 79.336 173.779,79.269 173.915,79.800 173.640 C 81.105 172.966,81.828 172.412,81.400 172.415 C 81.180 172.417,80.550 172.786,80.000 173.236 M73.322 177.437 L 72.200 178.473 73.500 177.609 C 74.691 176.818,75.079 176.400,74.622 176.400 C 74.525 176.400,73.940 176.867,73.322 177.437 M358.672 179.819 C 357.732 181.789,357.864 182.124,358.847 180.262 C 359.293 179.416,359.587 178.654,359.501 178.567 C 359.414 178.481,359.041 179.044,358.672 179.819 M69.800 179.850 C 69.081 180.462,68.934 180.705,69.433 180.457 C 70.166 180.093,71.541 178.776,71.149 178.814 C 71.067 178.822,70.460 179.288,69.800 179.850 M63.200 185.030 C 61.770 186.237,60.240 187.607,59.800 188.074 C 59.360 188.541,60.575 187.616,62.500 186.018 C 65.526 183.507,66.341 182.740,65.900 182.818 C 65.845 182.827,64.630 183.823,63.200 185.030 M54.600 192.899 C 53.280 194.265,52.556 195.116,52.990 194.791 C 53.906 194.105,55.953 192.091,56.749 191.090 C 57.840 189.719,56.952 190.466,54.600 192.899 M350.350 195.300 C 349.852 196.015,348.985 197.221,348.422 197.980 C 347.860 198.739,347.592 199.243,347.827 199.101 C 348.333 198.795,351.741 194.000,351.453 194.000 C 351.344 194.000,350.847 194.585,350.350 195.300 M49.579 198.222 C 49.051 198.784,48.888 199.141,49.218 199.014 C 49.739 198.815,51.034 197.200,50.673 197.200 C 50.600 197.200,50.107 197.660,49.579 198.222 M47.751 200.500 C 46.513 201.912,45.883 202.800,46.117 202.800 C 46.236 202.800,46.903 202.080,47.600 201.200 C 48.955 199.489,49.059 199.007,47.751 200.500 M344.450 203.100 C 342.855 205.025,342.361 205.739,343.352 204.687 C 345.298 202.620,347.766 199.600,347.508 199.600 C 347.421 199.600,346.045 201.175,344.450 203.100 M365.503 209.900 C 342.011 242.431,308.865 268.665,271.800 284.065 C 208.481 310.373,140.925 299.304,118.770 258.989 C 115.953 253.862,115.847 253.822,109.472 255.423 C 73.338 264.501,60.875 284.987,67.741 324.017 C 68.265 326.996,68.970 329.966,69.307 330.617 C 71.144 334.156,89.112 349.013,100.200 356.161 C 102.180 357.437,104.250 358.792,104.800 359.172 C 106.905 360.625,117.611 366.426,122.200 368.601 C 124.840 369.852,127.450 371.105,128.000 371.386 C 128.550 371.667,129.720 372.123,130.600 372.401 C 131.480 372.678,132.384 373.049,132.609 373.226 C 133.141 373.643,137.935 375.443,141.000 376.375 C 142.320 376.777,143.850 377.296,144.400 377.530 C 145.438 377.972,152.248 379.815,157.800 381.157 C 159.560 381.583,162.440 382.138,164.200 382.390 C 165.960 382.642,168.840 383.109,170.600 383.427 C 178.553 384.866,202.422 384.865,209.756 383.426 C 211.320 383.118,214.400 382.661,216.600 382.409 C 218.800 382.157,221.680 381.699,223.000 381.390 C 224.320 381.081,226.570 380.641,228.000 380.412 C 229.430 380.183,231.590 379.736,232.800 379.419 C 234.010 379.102,236.620 378.465,238.600 378.002 C 246.375 376.186,247.607 375.834,256.200 372.969 C 258.400 372.235,261.640 371.075,263.400 370.391 C 265.160 369.706,267.516 368.818,268.635 368.417 C 269.755 368.016,271.015 367.504,271.435 367.279 C 271.856 367.054,273.190 366.423,274.400 365.876 C 281.457 362.690,290.251 358.094,294.400 355.425 C 296.104 354.329,303.760 349.231,304.946 348.404 C 315.017 341.375,328.531 328.189,336.516 317.600 C 337.761 315.950,338.924 314.420,339.103 314.200 C 342.080 310.526,350.383 296.561,353.372 290.200 C 356.770 282.970,360.800 273.034,360.800 271.889 C 360.800 271.598,360.962 271.189,361.160 270.980 C 361.541 270.576,362.697 266.864,364.242 261.076 C 364.759 259.138,365.286 257.385,365.412 257.180 C 365.539 256.975,365.979 255.141,366.389 253.104 C 366.800 251.067,367.414 248.050,367.754 246.400 C 369.638 237.263,370.197 232.808,371.195 218.987 C 372.323 203.366,371.347 201.808,365.503 209.900 M338.589 209.617 C 337.055 211.166,334.471 213.551,332.847 214.917 C 328.238 218.792,327.592 219.426,330.312 217.403 C 332.679 215.643,342.044 206.851,341.589 206.816 C 341.473 206.807,340.123 208.067,338.589 209.617 M369.757 207.433 C 370.562 209.530,369.675 227.997,368.413 235.400 C 368.001 237.820,367.549 240.942,367.408 242.337 C 367.267 243.733,366.967 245.353,366.742 245.937 C 366.516 246.522,366.009 248.620,365.614 250.600 C 364.789 254.731,363.746 258.997,362.925 261.600 C 362.612 262.590,362.086 264.390,361.756 265.600 C 361.426 266.810,360.823 268.700,360.414 269.800 C 360.006 270.900,359.177 273.150,358.572 274.800 C 356.216 281.228,355.440 282.992,351.191 291.600 C 348.473 297.107,347.551 298.781,343.926 304.800 C 335.841 318.222,323.928 331.644,310.400 342.573 C 308.090 344.439,305.924 346.198,305.587 346.483 C 305.250 346.767,302.820 348.421,300.187 350.157 C 297.554 351.894,294.950 353.644,294.400 354.047 C 293.850 354.450,292.680 355.148,291.800 355.599 C 290.920 356.050,289.300 356.950,288.200 357.601 C 285.876 358.975,272.579 365.600,272.145 365.600 C 271.984 365.600,271.121 365.945,270.226 366.366 C 267.789 367.515,262.405 369.600,261.870 369.602 C 261.611 369.604,260.860 369.893,260.200 370.244 C 259.540 370.596,257.920 371.211,256.600 371.611 C 255.280 372.011,253.300 372.630,252.200 372.985 C 245.983 374.994,238.465 377.010,234.315 377.782 C 232.618 378.097,230.900 378.533,230.496 378.749 C 230.091 378.965,228.600 379.264,227.180 379.414 C 225.761 379.563,223.070 380.013,221.200 380.415 C 219.330 380.816,215.250 381.435,212.133 381.791 C 209.015 382.146,205.865 382.617,205.133 382.836 C 199.594 384.494,176.045 383.428,163.400 380.947 C 161.640 380.602,158.760 380.059,157.000 379.740 C 155.240 379.421,153.260 378.917,152.600 378.620 C 151.940 378.323,150.320 377.861,149.000 377.594 C 147.680 377.327,146.150 376.883,145.600 376.608 C 145.050 376.333,143.660 375.887,142.512 375.617 C 141.364 375.347,139.750 374.783,138.927 374.363 C 138.104 373.943,137.154 373.594,136.815 373.587 C 136.477 373.581,135.300 373.132,134.200 372.591 C 133.100 372.050,131.930 371.605,131.600 371.602 C 131.270 371.599,130.456 371.265,129.790 370.859 C 129.125 370.454,127.865 369.892,126.990 369.610 C 126.116 369.329,125.130 368.866,124.800 368.581 C 124.470 368.296,123.435 367.825,122.500 367.534 C 121.565 367.243,120.800 366.891,120.800 366.752 C 120.800 366.613,119.945 366.108,118.900 365.631 C 117.855 365.153,115.920 364.159,114.600 363.420 C 113.280 362.682,111.660 361.797,111.000 361.453 C 110.340 361.109,109.142 360.417,108.337 359.914 C 107.533 359.411,106.003 358.472,104.937 357.826 C 103.872 357.181,102.762 356.416,102.471 356.126 C 102.181 355.837,101.714 355.600,101.433 355.600 C 101.153 355.600,100.610 355.253,100.226 354.828 C 99.842 354.404,98.914 353.765,98.164 353.410 C 97.414 353.054,96.800 352.620,96.800 352.445 C 96.800 352.271,96.343 351.920,95.785 351.666 C 95.227 351.412,94.552 351.021,94.285 350.798 C 92.151 349.015,89.608 347.200,89.243 347.200 C 88.999 347.200,88.800 347.042,88.800 346.849 C 88.800 346.655,87.765 345.711,86.500 344.750 C 85.235 343.788,84.110 342.904,84.000 342.784 C 83.890 342.664,82.807 341.763,81.594 340.783 C 79.138 338.798,79.190 338.845,74.295 334.197 C 70.315 330.419,69.170 327.966,68.602 322.000 C 68.445 320.350,67.975 317.120,67.558 314.823 C 66.530 309.159,66.532 301.217,67.563 296.496 C 67.983 294.573,68.454 292.031,68.608 290.847 C 68.763 289.663,69.212 288.133,69.606 287.447 C 70.000 286.761,70.448 285.596,70.602 284.857 C 70.756 284.118,71.314 282.878,71.841 282.101 C 72.369 281.324,72.800 280.362,72.800 279.964 C 72.800 279.566,73.044 279.096,73.342 278.920 C 73.639 278.744,74.085 278.215,74.331 277.746 C 74.782 276.885,75.437 276.055,77.989 273.109 C 80.375 270.355,88.227 264.400,89.473 264.400 C 89.695 264.400,90.186 264.058,90.564 263.640 C 90.943 263.221,91.852 262.767,92.586 262.629 C 93.319 262.492,94.342 262.047,94.859 261.642 C 95.377 261.236,96.430 260.773,97.200 260.613 C 97.970 260.453,99.195 259.980,99.923 259.561 C 100.650 259.143,101.550 258.794,101.923 258.787 C 102.295 258.780,103.590 258.411,104.800 257.967 C 106.010 257.523,108.800 256.826,111.000 256.418 L 115.000 255.676 115.950 256.738 C 116.473 257.322,117.160 258.409,117.478 259.154 C 117.796 259.899,118.375 260.979,118.765 261.554 C 119.156 262.129,119.992 263.410,120.625 264.400 C 121.910 266.412,121.745 266.204,125.546 270.600 C 128.173 273.638,133.142 278.369,134.159 278.800 C 134.418 278.910,134.984 279.326,135.415 279.725 C 137.000 281.190,139.325 282.800,139.855 282.800 C 140.155 282.800,140.400 282.952,140.400 283.137 C 140.400 283.322,141.070 283.817,141.889 284.237 C 142.708 284.657,143.739 285.322,144.181 285.715 C 144.623 286.109,145.426 286.542,145.965 286.677 C 146.505 286.813,147.569 287.346,148.329 287.862 C 149.089 288.378,150.024 288.800,150.407 288.800 C 150.789 288.800,151.318 289.061,151.583 289.380 C 151.848 289.698,152.725 290.167,153.532 290.420 C 154.339 290.674,155.890 291.313,156.979 291.841 C 158.067 292.368,159.361 292.800,159.856 292.800 C 160.350 292.800,161.350 293.146,162.077 293.569 C 162.805 293.992,164.300 294.469,165.400 294.628 C 166.500 294.787,167.768 295.158,168.219 295.451 C 168.669 295.745,170.469 296.183,172.219 296.424 C 173.968 296.666,176.300 297.130,177.400 297.456 C 178.500 297.783,181.650 298.222,184.400 298.434 C 187.150 298.645,190.840 298.994,192.600 299.209 C 196.713 299.713,207.275 299.714,211.400 299.211 C 213.160 298.996,217.400 298.640,220.823 298.420 C 224.324 298.194,227.801 297.752,228.773 297.410 C 229.723 297.074,231.272 296.800,232.215 296.800 C 234.251 296.800,239.618 295.819,240.663 295.255 C 241.069 295.037,242.601 294.680,244.069 294.463 C 245.537 294.245,247.337 293.799,248.069 293.471 C 248.801 293.143,250.210 292.760,251.200 292.620 C 252.190 292.480,253.720 292.034,254.600 291.628 C 255.480 291.222,257.100 290.678,258.200 290.419 C 259.300 290.160,260.560 289.717,261.000 289.434 C 261.440 289.152,262.520 288.788,263.400 288.626 C 264.280 288.464,265.630 287.999,266.400 287.593 C 267.170 287.186,268.520 286.639,269.400 286.376 C 270.280 286.114,271.270 285.683,271.600 285.418 C 271.930 285.154,273.010 284.709,274.000 284.430 C 274.990 284.150,276.070 283.701,276.400 283.432 C 276.730 283.162,277.768 282.701,278.706 282.405 C 279.644 282.110,280.611 281.628,280.855 281.334 C 281.098 281.040,281.611 280.800,281.993 280.800 C 282.376 280.800,283.351 280.350,284.162 279.800 C 284.972 279.250,285.872 278.800,286.162 278.800 C 286.451 278.800,287.348 278.352,288.155 277.805 C 288.961 277.258,290.048 276.703,290.571 276.572 C 291.093 276.440,291.891 275.988,292.344 275.567 C 292.796 275.145,293.417 274.800,293.723 274.800 C 294.029 274.800,295.072 274.263,296.040 273.607 C 297.008 272.951,298.003 272.411,298.251 272.407 C 298.499 272.403,298.939 272.115,299.228 271.766 C 299.518 271.417,300.440 270.857,301.277 270.522 C 302.115 270.187,302.800 269.755,302.800 269.562 C 302.800 269.369,303.392 268.963,304.116 268.661 C 304.840 268.359,305.695 267.859,306.016 267.551 C 306.337 267.243,307.050 266.764,307.600 266.487 C 308.804 265.880,311.041 264.346,312.363 263.220 C 312.893 262.769,313.562 262.400,313.849 262.400 C 314.137 262.400,314.565 262.040,314.800 261.600 C 315.035 261.160,315.466 260.800,315.756 260.800 C 316.046 260.800,316.765 260.353,317.354 259.807 C 317.944 259.261,318.825 258.606,319.313 258.352 C 320.212 257.883,320.608 257.570,322.393 255.919 C 322.939 255.413,323.678 254.820,324.035 254.600 C 325.530 253.680,328.223 251.501,328.520 250.971 C 328.696 250.657,329.031 250.400,329.264 250.400 C 329.497 250.400,330.487 249.590,331.463 248.600 C 332.439 247.610,333.357 246.800,333.504 246.800 C 333.650 246.800,334.227 246.354,334.785 245.810 C 335.343 245.265,339.173 241.530,343.295 237.510 C 347.417 233.489,350.792 230.046,350.795 229.858 C 350.798 229.669,351.250 229.161,351.800 228.729 C 352.350 228.296,352.800 227.685,352.800 227.371 C 352.800 227.057,353.064 226.800,353.386 226.800 C 353.708 226.800,354.162 226.444,354.395 226.009 C 354.628 225.574,355.219 224.786,355.709 224.259 C 356.879 222.999,358.362 221.224,359.600 219.602 C 360.150 218.881,361.095 217.707,361.700 216.993 C 362.305 216.279,362.800 215.493,362.800 215.247 C 362.800 215.001,362.978 214.800,363.195 214.800 C 363.412 214.800,364.036 214.125,364.581 213.300 C 365.127 212.475,366.116 211.080,366.779 210.200 C 367.443 209.320,368.198 208.195,368.457 207.700 C 369.011 206.641,369.421 206.557,369.757 207.433 M37.686 216.012 C 37.240 216.913,37.120 217.433,37.413 217.189 C 37.898 216.787,38.932 214.400,38.621 214.400 C 38.545 214.400,38.125 215.126,37.686 216.012 M323.918 221.547 C 321.072 223.398,320.448 224.019,322.705 222.755 C 324.318 221.852,326.831 220.009,326.400 220.046 C 326.290 220.055,325.173 220.731,323.918 221.547 M33.515 226.210 C 33.392 226.645,33.169 227.360,33.020 227.800 C 32.871 228.240,33.042 228.094,33.400 227.476 C 33.758 226.858,33.981 226.142,33.895 225.886 C 33.810 225.630,33.639 225.776,33.515 226.210 M304.600 231.014 C 303.940 231.317,303.670 231.566,304.000 231.568 C 304.330 231.570,305.050 231.314,305.600 231.000 C 306.865 230.277,306.189 230.287,304.600 231.014 M31.278 234.625 C 31.001 235.661,30.858 236.592,30.961 236.694 C 31.206 236.939,32.086 233.659,31.914 233.142 C 31.841 232.923,31.555 233.590,31.278 234.625 M293.800 234.400 C 293.296 234.617,293.222 234.744,293.600 234.744 C 293.930 234.744,294.560 234.589,295.000 234.400 C 295.504 234.183,295.578 234.056,295.200 234.056 C 294.870 234.056,294.240 234.211,293.800 234.400 M30.509 240.400 C 30.509 241.390,30.587 241.795,30.682 241.300 C 30.778 240.805,30.778 239.995,30.682 239.500 C 30.587 239.005,30.509 239.410,30.509 240.400 M266.900 239.876 C 267.285 239.976,267.915 239.976,268.300 239.876 C 268.685 239.775,268.370 239.693,267.600 239.693 C 266.830 239.693,266.515 239.775,266.900 239.876 M263.105 240.283 C 263.602 240.379,264.322 240.375,264.705 240.275 C 265.087 240.175,264.680 240.096,263.800 240.101 C 262.920 240.105,262.607 240.187,263.105 240.283 M259.700 240.676 C 260.085 240.776,260.715 240.776,261.100 240.676 C 261.485 240.575,261.170 240.493,260.400 240.493 C 259.630 240.493,259.315 240.575,259.700 240.676 M256.500 241.076 C 256.885 241.176,257.515 241.176,257.900 241.076 C 258.285 240.975,257.970 240.893,257.200 240.893 C 256.430 240.893,256.115 240.975,256.500 241.076 M253.105 241.483 C 253.602 241.579,254.322 241.575,254.705 241.475 C 255.087 241.375,254.680 241.296,253.800 241.301 C 252.920 241.305,252.607 241.387,253.105 241.483 M245.891 241.889 C 246.601 241.977,247.861 241.979,248.691 241.892 C 249.521 241.805,248.940 241.733,247.400 241.731 C 245.860 241.729,245.181 241.800,245.891 241.889 M238.500 242.291 C 239.325 242.378,240.675 242.378,241.500 242.291 C 242.325 242.205,241.650 242.134,240.000 242.134 C 238.350 242.134,237.675 242.205,238.500 242.291 M232.100 242.691 C 232.925 242.778,234.275 242.778,235.100 242.691 C 235.925 242.605,235.250 242.534,233.600 242.534 C 231.950 242.534,231.275 242.605,232.100 242.691 M222.713 243.095 C 223.876 243.176,225.676 243.176,226.713 243.093 C 227.751 243.011,226.800 242.945,224.600 242.946 C 222.400 242.947,221.551 243.014,222.713 243.095 M205.921 243.499 C 208.188 243.570,211.788 243.570,213.921 243.498 C 216.055 243.426,214.200 243.368,209.800 243.368 C 205.400 243.368,203.655 243.427,205.921 243.499 M30.157 248.800 C 30.157 251.770,30.220 252.985,30.297 251.500 C 30.374 250.015,30.374 247.585,30.297 246.100 C 30.220 244.615,30.157 245.830,30.157 248.800 M182.922 243.899 C 185.299 243.970,189.079 243.969,191.322 243.898 C 193.565 243.827,191.620 243.769,187.000 243.769 C 182.380 243.770,180.545 243.828,182.922 243.899 M163.300 244.297 C 165.005 244.372,167.795 244.372,169.500 244.297 C 171.205 244.222,169.810 244.161,166.400 244.161 C 162.990 244.161,161.595 244.222,163.300 244.297 M154.100 244.691 C 154.925 244.778,156.275 244.778,157.100 244.691 C 157.925 244.605,157.250 244.534,155.600 244.534 C 153.950 244.534,153.275 244.605,154.100 244.691 M149.105 245.083 C 149.602 245.179,150.322 245.175,150.705 245.075 C 151.087 244.975,150.680 244.896,149.800 244.901 C 148.920 244.905,148.607 244.987,149.105 245.083 M144.700 245.482 C 145.195 245.578,146.005 245.578,146.500 245.482 C 146.995 245.387,146.590 245.309,145.600 245.309 C 144.610 245.309,144.205 245.387,144.700 245.482 M137.700 245.887 C 138.305 245.978,139.295 245.978,139.900 245.887 C 140.505 245.795,140.010 245.720,138.800 245.720 C 137.590 245.720,137.095 245.795,137.700 245.887 M133.105 246.283 C 133.602 246.379,134.322 246.375,134.705 246.275 C 135.087 246.175,134.680 246.096,133.800 246.101 C 132.920 246.105,132.607 246.187,133.105 246.283 M130.100 246.676 C 130.485 246.776,131.115 246.776,131.500 246.676 C 131.885 246.575,131.570 246.493,130.800 246.493 C 130.030 246.493,129.715 246.575,130.100 246.676 M104.200 251.600 C 103.696 251.817,103.622 251.944,104.000 251.944 C 104.330 251.944,104.960 251.789,105.400 251.600 C 105.904 251.383,105.978 251.256,105.600 251.256 C 105.270 251.256,104.640 251.411,104.200 251.600 M94.800 254.800 C 94.030 255.222,93.580 255.566,93.800 255.566 C 94.020 255.566,94.830 255.222,95.600 254.800 C 96.370 254.378,96.820 254.034,96.600 254.034 C 96.380 254.034,95.570 254.378,94.800 254.800 M30.509 257.200 C 30.509 258.190,30.587 258.595,30.682 258.100 C 30.778 257.605,30.778 256.795,30.682 256.300 C 30.587 255.805,30.509 256.210,30.509 257.200 M86.400 258.836 C 85.736 259.379,85.669 259.515,86.200 259.240 C 87.505 258.566,88.228 258.012,87.800 258.015 C 87.580 258.017,86.950 258.386,86.400 258.836 M30.848 261.200 C 30.828 261.530,31.067 262.610,31.379 263.600 C 31.691 264.590,31.945 265.040,31.943 264.600 C 31.938 263.606,30.897 260.374,30.848 261.200 M79.437 263.422 C 78.207 264.424,77.200 265.341,77.200 265.459 C 77.200 265.578,78.145 264.904,79.300 263.963 C 82.150 261.640,82.194 261.600,81.917 261.600 C 81.783 261.600,80.667 262.420,79.437 263.422 M73.938 268.313 C 72.530 269.805,70.963 271.650,70.455 272.413 C 69.641 273.635,69.689 273.610,70.859 272.200 C 71.589 271.320,73.253 269.475,74.556 268.100 C 75.860 266.725,76.830 265.600,76.712 265.600 C 76.594 265.600,75.345 266.821,73.938 268.313 M33.249 271.609 C 33.854 273.400,34.195 273.748,33.828 272.200 C 33.671 271.540,33.371 270.824,33.161 270.609 C 32.950 270.394,32.990 270.844,33.249 271.609 M34.828 277.000 C 34.828 277.220,35.086 277.850,35.400 278.400 C 35.714 278.950,35.972 279.220,35.972 279.000 C 35.972 278.780,35.714 278.150,35.400 277.600 C 35.086 277.050,34.828 276.780,34.828 277.000 M62.836 288.036 C 62.566 288.939,62.418 289.752,62.508 289.842 C 62.598 289.932,62.893 289.266,63.164 288.364 C 63.434 287.461,63.582 286.648,63.492 286.558 C 63.402 286.468,63.107 287.134,62.836 288.036 M43.455 296.200 C 44.380 297.779,44.400 297.803,44.400 297.311 C 44.400 297.079,44.029 296.464,43.576 295.944 L 42.753 295.000 43.455 296.200 M61.293 296.800 C 61.293 297.570,61.375 297.885,61.476 297.500 C 61.576 297.115,61.576 296.485,61.476 296.100 C 61.375 295.715,61.293 296.030,61.293 296.800 M60.963 305.200 C 60.963 308.830,61.023 310.315,61.098 308.500 C 61.172 306.685,61.172 303.715,61.098 301.900 C 61.023 300.085,60.963 301.570,60.963 305.200 M51.599 309.500 C 52.122 310.215,52.613 310.800,52.689 310.800 C 52.993 310.800,52.001 309.300,51.345 308.767 C 50.913 308.416,51.010 308.696,51.599 309.500 M61.301 314.200 C 61.305 315.080,61.387 315.393,61.483 314.895 C 61.579 314.398,61.575 313.678,61.475 313.295 C 61.375 312.913,61.296 313.320,61.301 314.200 M55.375 314.532 C 55.991 315.339,56.576 316.000,56.675 316.000 C 56.953 316.000,55.221 313.660,54.709 313.344 C 54.459 313.189,54.759 313.724,55.375 314.532 M58.868 318.972 C 61.028 321.597,62.044 321.885,61.968 319.851 C 61.938 319.032,61.878 319.119,61.368 320.734 C 61.266 321.056,60.391 320.302,59.165 318.834 C 58.046 317.495,57.045 316.400,56.941 316.400 C 56.837 316.400,57.704 317.558,58.868 318.972 M61.693 317.600 C 61.693 318.370,61.775 318.685,61.876 318.300 C 61.976 317.915,61.976 317.285,61.876 316.900 C 61.775 316.515,61.693 316.830,61.693 317.600 " stroke="none" fill="#848484" fill-rule="evenodd"></path><path id="path4" d="M195.400 13.989 C 193.420 14.173,191.293 14.521,190.674 14.762 C 190.055 15.003,188.435 15.201,187.074 15.203 C 183.586 15.208,177.728 15.914,175.600 16.586 C 174.610 16.899,172.230 17.338,170.311 17.561 C 168.392 17.785,166.322 18.221,165.711 18.529 C 165.100 18.838,163.368 19.212,161.862 19.360 C 160.356 19.509,158.376 19.909,157.462 20.249 C 156.548 20.590,154.630 21.091,153.200 21.364 C 151.770 21.636,150.060 22.138,149.400 22.478 C 148.740 22.818,147.300 23.222,146.200 23.375 C 145.100 23.529,143.541 23.991,142.735 24.402 C 141.929 24.814,140.579 25.272,139.735 25.420 C 138.891 25.567,137.650 26.002,136.977 26.385 C 136.305 26.768,135.053 27.214,134.196 27.374 C 133.339 27.535,131.821 28.102,130.822 28.633 C 129.824 29.165,128.735 29.601,128.403 29.601 C 128.071 29.602,127.245 29.941,126.567 30.355 C 125.888 30.769,124.772 31.230,124.085 31.381 C 123.399 31.532,122.424 31.979,121.919 32.376 C 121.413 32.772,120.423 33.222,119.719 33.376 C 119.014 33.529,118.024 33.977,117.519 34.369 C 117.013 34.762,115.928 35.303,115.106 35.571 C 114.284 35.839,113.511 36.220,113.389 36.418 C 113.267 36.615,112.409 37.143,111.483 37.590 C 110.558 38.037,108.900 38.930,107.800 39.574 C 106.700 40.218,105.440 40.919,105.000 41.132 C 103.658 41.782,99.462 44.380,99.224 44.708 C 99.101 44.878,98.550 45.241,98.000 45.517 C 97.044 45.995,95.112 47.301,93.400 48.626 C 92.960 48.967,91.162 50.321,89.405 51.636 C 87.648 52.951,85.415 54.741,84.444 55.613 C 83.473 56.486,82.578 57.200,82.454 57.200 C 82.200 57.200,82.198 57.202,74.600 64.694 C 71.520 67.732,68.190 71.166,67.200 72.327 C 66.210 73.487,64.950 74.959,64.400 75.598 C 63.850 76.236,63.004 77.263,62.521 77.879 C 62.037 78.496,61.092 79.700,60.421 80.555 C 59.749 81.410,59.200 82.312,59.200 82.559 C 59.200 82.806,58.840 83.232,58.400 83.507 C 57.960 83.782,57.600 84.219,57.600 84.478 C 57.600 84.737,57.257 85.320,56.838 85.774 C 56.419 86.228,55.744 87.163,55.338 87.850 C 54.932 88.538,53.948 90.068,53.150 91.250 C 51.666 93.451,51.034 94.560,49.617 97.447 C 49.173 98.353,48.549 99.311,48.230 99.575 C 47.912 99.839,47.538 100.570,47.400 101.200 C 47.262 101.830,46.899 102.552,46.595 102.804 C 46.290 103.057,45.826 103.925,45.562 104.732 C 45.299 105.539,44.762 106.613,44.369 107.119 C 43.977 107.624,43.529 108.614,43.376 109.319 C 43.222 110.023,42.759 111.029,42.348 111.554 C 41.937 112.079,41.600 112.817,41.600 113.194 C 41.600 113.572,41.160 114.709,40.622 115.720 C 40.084 116.732,39.521 118.244,39.371 119.080 C 39.221 119.916,38.865 120.870,38.579 121.200 C 38.294 121.530,37.837 122.700,37.564 123.800 C 37.291 124.900,36.750 126.430,36.361 127.200 C 35.972 127.970,35.526 129.500,35.368 130.600 C 35.211 131.700,34.842 132.969,34.548 133.420 C 34.253 133.871,33.756 135.491,33.442 137.020 C 33.128 138.549,32.601 140.524,32.269 141.410 C 31.938 142.295,31.538 144.365,31.381 146.010 C 31.223 147.654,30.851 149.482,30.552 150.070 C 30.254 150.659,29.822 152.909,29.592 155.070 C 29.362 157.232,28.915 160.080,28.598 161.400 C 27.222 167.123,26.669 188.264,27.851 189.951 C 28.913 191.468,32.800 189.996,32.800 188.076 C 32.800 187.755,33.205 187.070,33.700 186.556 C 35.302 184.889,35.946 184.064,36.538 182.920 C 36.857 182.303,37.497 181.456,37.959 181.037 C 38.422 180.618,38.800 180.055,38.800 179.784 C 38.800 179.513,39.250 178.997,39.800 178.637 C 40.350 178.276,40.800 177.814,40.800 177.609 C 40.800 177.404,41.205 176.801,41.700 176.269 C 42.195 175.737,43.020 174.784,43.532 174.151 C 44.045 173.518,45.438 171.920,46.626 170.600 C 47.815 169.280,48.791 167.971,48.794 167.690 C 48.797 167.410,49.250 167.009,49.800 166.800 C 50.350 166.591,50.800 166.166,50.800 165.856 C 50.800 165.546,51.250 164.997,51.800 164.637 C 52.350 164.276,52.800 163.737,52.800 163.437 C 52.800 163.138,53.173 162.796,53.630 162.676 C 54.086 162.557,54.553 162.103,54.667 161.667 C 54.781 161.231,55.231 160.781,55.667 160.667 C 56.103 160.553,56.553 160.103,56.667 159.667 C 56.781 159.231,57.231 158.781,57.667 158.667 C 58.103 158.553,58.553 158.103,58.667 157.667 C 58.781 157.231,59.231 156.781,59.667 156.667 C 60.103 156.553,60.553 156.101,60.667 155.664 C 60.782 155.226,61.309 154.759,61.838 154.626 C 62.367 154.493,62.800 154.114,62.800 153.782 C 62.800 153.451,63.250 153.009,63.800 152.800 C 64.350 152.591,64.800 152.262,64.800 152.070 C 64.800 151.877,65.815 150.928,67.055 149.960 C 68.296 148.992,69.678 147.795,70.128 147.300 C 70.577 146.805,71.187 146.400,71.485 146.400 C 71.782 146.400,72.131 146.123,72.261 145.785 C 72.391 145.447,73.015 144.902,73.648 144.575 C 74.282 144.247,74.800 143.714,74.800 143.390 C 74.800 143.065,75.135 142.800,75.544 142.800 C 75.953 142.800,76.626 142.350,77.039 141.800 C 77.452 141.250,77.991 140.800,78.237 140.800 C 78.482 140.800,79.183 140.336,79.795 139.770 C 80.406 139.203,81.332 138.578,81.853 138.380 C 82.374 138.182,82.800 137.745,82.800 137.410 C 82.800 137.074,83.091 136.800,83.447 136.800 C 83.803 136.800,84.709 136.260,85.461 135.600 C 86.213 134.940,87.090 134.400,87.411 134.400 C 87.731 134.400,88.218 134.040,88.493 133.600 C 88.768 133.160,89.194 132.800,89.441 132.800 C 89.688 132.800,90.569 132.260,91.400 131.600 C 92.231 130.940,93.145 130.400,93.432 130.400 C 93.720 130.400,94.190 130.069,94.477 129.665 C 94.765 129.260,95.454 128.817,96.008 128.680 C 96.562 128.543,97.410 128.064,97.891 127.615 C 98.373 127.167,99.016 126.800,99.321 126.800 C 99.626 126.800,100.399 126.350,101.038 125.799 C 101.677 125.249,102.769 124.610,103.465 124.380 C 104.160 124.150,104.821 123.723,104.933 123.431 C 105.045 123.140,105.785 122.779,106.577 122.631 C 107.370 122.482,108.237 122.009,108.505 121.580 C 108.773 121.151,109.318 120.800,109.716 120.800 C 110.619 120.800,112.800 119.697,112.800 119.241 C 112.800 119.055,113.510 118.789,114.378 118.650 C 115.246 118.511,116.191 118.065,116.478 117.660 C 116.765 117.254,117.657 116.800,118.459 116.650 C 119.262 116.501,120.342 116.050,120.859 115.647 C 121.377 115.245,122.457 114.795,123.259 114.647 C 124.062 114.500,125.142 114.050,125.659 113.647 C 126.177 113.245,127.257 112.795,128.059 112.647 C 128.862 112.500,129.942 112.049,130.459 111.646 C 130.977 111.242,132.242 110.788,133.272 110.636 C 134.301 110.484,135.590 110.009,136.135 109.580 C 136.680 109.151,137.470 108.800,137.890 108.800 C 139.058 108.800,142.800 107.612,142.800 107.241 C 142.800 107.061,143.911 106.798,145.269 106.656 C 146.627 106.514,148.296 106.068,148.979 105.665 C 149.662 105.262,151.322 104.818,152.667 104.677 C 154.012 104.536,156.077 104.080,157.256 103.663 C 158.435 103.246,161.479 102.714,164.020 102.481 C 166.560 102.248,169.350 101.786,170.220 101.454 C 174.056 99.987,210.380 99.986,213.600 101.452 C 214.370 101.802,216.800 102.308,219.000 102.576 C 221.200 102.844,223.695 103.374,224.545 103.755 C 225.395 104.137,226.968 104.552,228.042 104.680 C 229.116 104.807,230.189 105.146,230.428 105.434 C 230.667 105.721,231.883 106.177,233.131 106.447 C 234.379 106.717,235.856 107.251,236.414 107.634 C 236.971 108.018,238.084 108.455,238.887 108.605 C 239.691 108.756,240.654 109.218,241.029 109.632 C 241.403 110.046,242.360 110.505,243.155 110.653 C 243.950 110.801,244.821 111.234,245.091 111.615 C 245.361 111.997,246.068 112.431,246.664 112.580 C 247.259 112.730,248.267 113.290,248.904 113.826 C 249.540 114.362,250.388 114.800,250.788 114.800 C 251.187 114.800,251.619 115.072,251.746 115.403 C 251.873 115.735,252.478 116.230,253.089 116.503 C 253.700 116.775,254.613 117.404,255.118 117.899 C 255.623 118.395,256.286 118.800,256.591 118.800 C 256.896 118.800,257.260 119.160,257.400 119.600 C 257.540 120.040,257.814 120.400,258.011 120.400 C 258.207 120.400,258.870 120.860,259.484 121.422 C 263.107 124.737,265.600 127.187,265.600 127.430 C 265.600 127.583,266.052 128.179,266.604 128.754 C 268.898 131.143,269.201 131.501,269.211 131.842 C 269.217 132.039,269.757 132.907,270.411 133.771 C 271.065 134.635,271.600 135.553,271.600 135.809 C 271.600 136.066,271.950 136.593,272.377 136.979 C 272.805 137.366,273.271 138.213,273.413 138.861 C 273.556 139.508,274.016 140.253,274.436 140.515 C 274.856 140.778,275.200 141.299,275.200 141.674 C 275.200 144.448,282.247 145.661,287.294 143.756 C 288.232 143.402,290.696 142.953,292.769 142.758 C 294.845 142.563,297.271 142.072,298.169 141.664 C 299.066 141.257,300.868 140.719,302.173 140.468 C 303.478 140.217,304.670 139.810,304.822 139.564 C 304.975 139.317,305.977 138.953,307.050 138.754 C 308.122 138.556,309.488 138.035,310.084 137.597 C 310.680 137.158,311.420 136.800,311.728 136.800 C 312.036 136.800,312.951 136.350,313.762 135.800 C 314.572 135.250,315.383 134.800,315.563 134.800 C 315.880 134.800,317.811 133.419,320.141 131.527 C 321.791 130.186,324.400 127.550,324.400 127.224 C 324.400 127.070,324.940 126.339,325.600 125.600 C 326.260 124.861,326.800 123.838,326.800 123.328 C 326.800 122.818,326.989 122.400,327.220 122.400 C 327.826 122.400,328.800 119.857,328.800 118.274 C 328.800 117.531,329.112 116.310,329.493 115.561 C 330.498 113.586,330.679 105.793,329.790 102.800 C 329.431 101.590,328.968 98.990,328.762 97.023 C 328.533 94.837,328.096 92.951,327.639 92.176 C 327.227 91.478,326.763 89.986,326.608 88.861 C 326.454 87.736,326.011 86.407,325.625 85.908 C 325.238 85.408,324.810 84.286,324.672 83.413 C 324.535 82.540,324.085 81.370,323.674 80.813 C 323.262 80.256,322.803 79.143,322.652 78.341 C 322.502 77.538,322.058 76.458,321.665 75.941 C 321.273 75.423,320.727 74.225,320.453 73.279 C 320.179 72.332,319.717 71.466,319.425 71.354 C 319.133 71.242,318.786 70.472,318.653 69.643 C 318.521 68.813,318.067 67.823,317.646 67.441 C 317.224 67.060,316.763 66.129,316.621 65.372 C 316.479 64.616,316.044 63.683,315.654 63.298 C 315.264 62.914,314.725 61.835,314.457 60.900 C 314.188 59.965,313.804 59.200,313.603 59.200 C 313.402 59.200,312.939 58.570,312.573 57.800 C 312.208 57.030,311.787 56.400,311.638 56.400 C 311.490 56.400,310.572 55.680,309.600 54.800 C 308.628 53.920,307.600 53.200,307.316 53.200 C 307.032 53.200,306.800 52.936,306.800 52.614 C 306.800 52.292,306.395 51.817,305.900 51.559 C 305.405 51.301,304.730 50.840,304.400 50.535 C 302.938 49.184,300.157 47.207,299.714 47.204 C 299.447 47.202,299.035 46.840,298.800 46.400 C 298.565 45.960,298.167 45.600,297.917 45.600 C 297.667 45.600,297.122 45.291,296.704 44.913 C 296.287 44.536,295.347 43.861,294.614 43.413 C 293.882 42.966,292.148 41.835,290.762 40.900 C 289.375 39.965,288.016 39.200,287.740 39.200 C 287.465 39.200,287.096 38.974,286.920 38.699 C 286.593 38.186,282.567 35.606,282.073 35.593 C 281.923 35.589,281.008 35.049,280.040 34.393 C 279.072 33.737,277.966 33.200,277.583 33.200 C 277.199 33.200,276.795 32.965,276.685 32.678 C 276.575 32.391,275.703 31.898,274.747 31.582 C 273.791 31.267,272.710 30.710,272.345 30.345 C 271.980 29.980,271.078 29.550,270.341 29.389 C 269.603 29.228,268.587 28.772,268.081 28.376 C 267.576 27.979,266.586 27.529,265.881 27.376 C 265.177 27.222,264.190 26.774,263.688 26.381 C 263.187 25.988,262.072 25.547,261.211 25.402 C 260.350 25.256,259.447 24.897,259.203 24.604 C 258.960 24.310,257.824 23.850,256.680 23.581 C 255.536 23.312,253.970 22.778,253.200 22.395 C 252.430 22.011,251.170 21.570,250.400 21.414 C 249.630 21.258,248.280 20.799,247.400 20.393 C 246.520 19.988,244.720 19.528,243.400 19.371 C 242.080 19.213,240.607 18.828,240.127 18.514 C 239.647 18.200,237.757 17.697,235.927 17.397 C 234.097 17.096,231.641 16.575,230.468 16.239 C 229.296 15.904,226.236 15.511,223.668 15.366 C 221.101 15.221,218.010 14.852,216.800 14.545 C 214.114 13.864,200.533 13.511,195.400 13.989 M218.400 15.801 C 247.576 18.390,277.942 31.171,304.758 52.146 C 311.132 57.132,311.756 57.814,313.943 62.200 C 317.096 68.522,320.279 75.309,320.602 76.400 C 320.765 76.950,321.038 77.580,321.209 77.800 C 322.149 79.008,325.509 88.516,327.146 94.600 C 329.446 103.148,329.455 115.249,327.164 120.278 C 326.744 121.201,326.400 122.082,326.400 122.237 C 326.400 122.914,323.294 127.104,321.394 128.988 C 314.858 135.473,302.555 140.431,287.600 142.608 C 285.290 142.945,282.432 143.388,281.249 143.594 C 277.806 144.193,277.299 143.772,273.787 137.400 C 268.874 128.486,262.869 122.064,253.046 115.222 C 248.808 112.269,238.990 107.194,235.600 106.203 C 235.050 106.043,234.060 105.677,233.400 105.392 C 214.992 97.429,179.644 96.902,150.600 104.157 C 144.934 105.573,137.483 107.917,132.532 109.841 C 131.174 110.368,129.790 110.800,129.455 110.800 C 129.121 110.800,128.744 110.967,128.618 111.171 C 128.492 111.375,127.716 111.757,126.894 112.021 C 126.072 112.285,124.455 112.928,123.300 113.451 C 122.145 113.973,120.165 114.864,118.900 115.431 C 111.707 118.654,104.310 122.559,97.093 126.941 C 94.504 128.514,92.074 129.986,91.693 130.212 C 90.394 130.986,86.605 133.569,83.800 135.595 C 82.260 136.707,80.542 137.928,79.982 138.308 C 70.423 144.800,52.025 162.114,43.144 172.975 C 38.489 178.668,36.115 181.719,33.910 184.843 C 28.861 191.997,28.174 191.538,28.272 181.075 C 28.468 160.194,33.384 136.356,41.734 115.800 C 54.163 85.203,75.771 59.999,104.400 42.708 C 116.005 35.699,129.107 29.879,143.400 25.384 C 152.185 22.622,155.423 21.785,167.200 19.239 C 174.264 17.711,185.763 16.067,192.600 15.607 C 196.340 15.355,199.850 15.088,200.400 15.013 C 202.053 14.788,211.790 15.214,218.400 15.801 M322.138 68.500 C 321.706 69.199,321.972 71.282,322.585 72.000 C 322.867 72.330,323.405 73.545,323.781 74.700 C 324.157 75.855,324.610 76.800,324.788 76.800 C 324.965 76.800,325.234 77.475,325.385 78.300 C 325.535 79.125,326.005 80.395,326.429 81.123 C 326.853 81.850,327.406 83.290,327.658 84.323 C 327.911 85.355,328.340 86.650,328.613 87.200 C 328.886 87.750,329.330 89.280,329.600 90.600 C 329.870 91.920,330.327 93.459,330.615 94.021 C 331.112 94.990,332.227 102.208,332.682 107.400 C 332.900 109.893,331.495 120.160,330.825 120.972 C 330.631 121.207,330.149 122.210,329.755 123.200 C 326.142 132.277,314.079 140.403,299.437 143.623 C 297.478 144.053,295.676 144.571,295.433 144.772 C 295.191 144.974,293.824 145.253,292.396 145.394 C 290.968 145.534,287.910 145.997,285.600 146.422 C 283.290 146.846,277.350 147.475,272.400 147.819 C 267.450 148.163,262.230 148.616,260.800 148.825 C 259.370 149.035,243.350 149.381,225.200 149.594 C 206.395 149.814,187.640 150.237,181.600 150.577 C 175.770 150.905,167.040 151.368,162.200 151.607 C 157.360 151.845,152.140 152.293,150.600 152.602 C 149.060 152.911,145.367 153.353,142.394 153.583 C 139.421 153.813,136.361 154.185,135.594 154.409 C 134.827 154.634,132.130 155.084,129.600 155.411 C 127.070 155.737,124.280 156.262,123.400 156.575 C 122.520 156.889,120.508 157.338,118.928 157.572 C 117.348 157.807,115.552 158.190,114.937 158.424 C 114.322 158.658,112.588 159.108,111.083 159.425 C 109.578 159.741,107.960 160.207,107.487 160.461 C 107.014 160.714,105.450 161.238,104.013 161.625 C 100.338 162.616,95.521 164.319,95.043 164.797 C 94.821 165.019,94.347 165.200,93.988 165.200 C 93.629 165.200,92.450 165.650,91.368 166.199 C 90.286 166.749,88.770 167.402,88.000 167.650 C 87.230 167.898,86.330 168.327,86.000 168.603 C 85.670 168.879,84.950 169.242,84.400 169.409 C 83.850 169.576,82.773 170.138,82.007 170.656 C 81.241 171.175,80.472 171.600,80.299 171.600 C 79.971 171.600,78.135 172.724,74.460 175.173 C 73.283 175.958,71.843 176.909,71.260 177.286 C 70.677 177.663,69.840 178.254,69.400 178.599 C 68.960 178.943,67.610 179.982,66.400 180.907 C 65.190 181.832,63.993 182.772,63.740 182.995 C 63.487 183.218,62.625 183.940,61.825 184.600 C 56.127 189.300,43.238 203.216,43.210 204.700 C 43.204 204.975,43.024 205.200,42.808 205.200 C 42.593 205.200,42.047 205.875,41.595 206.700 C 41.143 207.525,40.248 209.010,39.606 210.000 C 38.965 210.990,37.694 213.330,36.782 215.200 C 35.870 217.070,34.800 219.230,34.405 220.000 C 34.010 220.770,33.567 221.967,33.420 222.661 C 33.274 223.354,32.820 224.576,32.412 225.376 C 32.005 226.176,31.544 227.768,31.389 228.915 C 31.233 230.062,30.852 231.497,30.540 232.105 C 28.526 236.038,28.474 262.001,30.473 265.737 C 30.720 266.198,31.168 267.991,31.468 269.721 C 31.768 271.451,32.254 273.346,32.548 273.933 C 32.843 274.520,33.301 275.900,33.568 277.000 C 33.834 278.100,34.282 279.360,34.563 279.800 C 34.844 280.240,35.202 281.140,35.360 281.800 C 35.518 282.460,36.013 283.810,36.461 284.800 C 38.042 288.294,39.689 291.809,40.115 292.600 C 40.352 293.040,41.344 294.930,42.319 296.800 C 43.295 298.670,44.342 300.484,44.646 300.831 C 44.951 301.179,45.205 301.629,45.211 301.831 C 45.217 302.034,45.757 302.907,46.411 303.771 C 47.065 304.635,47.600 305.489,47.600 305.668 C 47.600 305.847,48.185 306.778,48.900 307.737 C 49.615 308.696,50.470 309.888,50.800 310.385 C 51.130 310.883,51.850 311.885,52.400 312.612 C 52.950 313.338,54.110 314.932,54.979 316.154 C 55.847 317.375,56.792 318.465,57.079 318.575 C 57.365 318.685,57.600 319.040,57.600 319.365 C 57.600 319.689,57.931 320.190,58.337 320.477 C 58.742 320.765,59.270 321.371,59.510 321.825 C 59.974 322.700,62.775 323.785,63.276 323.284 C 63.799 322.761,63.759 320.649,63.196 319.000 C 62.196 316.073,62.423 294.827,63.487 291.800 C 63.951 290.480,64.458 288.500,64.614 287.400 C 64.770 286.300,65.116 285.130,65.383 284.800 C 65.650 284.470,66.104 283.570,66.392 282.800 C 67.297 280.382,69.297 276.400,69.606 276.400 C 69.769 276.400,70.119 275.878,70.384 275.240 C 70.648 274.601,71.300 273.670,71.832 273.170 C 72.364 272.670,72.800 272.043,72.800 271.776 C 72.800 271.510,73.250 270.997,73.800 270.637 C 74.350 270.276,74.800 269.737,74.800 269.437 C 74.800 269.138,75.173 268.796,75.630 268.676 C 76.086 268.557,76.557 268.086,76.676 267.630 C 76.796 267.173,77.135 266.800,77.431 266.800 C 77.727 266.800,78.291 266.460,78.684 266.044 C 79.839 264.825,83.019 262.511,83.945 262.217 C 84.415 262.068,84.800 261.787,84.800 261.592 C 84.800 261.397,85.565 260.873,86.500 260.429 C 87.435 259.984,88.470 259.454,88.800 259.251 C 89.130 259.048,90.165 258.566,91.100 258.180 C 92.035 257.794,92.800 257.326,92.800 257.139 C 92.800 256.953,93.215 256.800,93.721 256.800 C 94.228 256.800,95.533 256.371,96.621 255.846 C 97.710 255.321,99.500 254.679,100.600 254.420 C 101.700 254.160,102.964 253.712,103.410 253.424 C 103.855 253.136,105.205 252.770,106.410 252.611 C 107.614 252.451,109.333 252.003,110.228 251.615 C 111.124 251.226,113.104 250.785,114.628 250.634 C 116.153 250.482,118.660 250.016,120.200 249.597 C 121.740 249.179,125.520 248.640,128.600 248.400 C 131.680 248.160,134.920 247.772,135.800 247.538 C 136.680 247.303,142.710 246.873,149.200 246.583 C 155.690 246.293,164.870 245.855,169.600 245.610 C 174.330 245.365,190.548 245.003,205.639 244.805 C 232.250 244.455,242.701 244.036,245.597 243.202 C 246.366 242.981,248.526 242.797,250.397 242.793 C 255.167 242.784,262.451 242.139,265.784 241.430 C 267.333 241.100,270.549 240.645,272.930 240.420 C 275.312 240.194,277.832 239.752,278.530 239.439 C 279.229 239.126,281.146 238.749,282.790 238.601 C 284.435 238.454,286.505 238.067,287.390 237.740 C 288.276 237.413,290.317 236.901,291.926 236.602 C 293.536 236.302,295.246 235.803,295.726 235.492 C 296.207 235.181,297.487 234.807,298.570 234.661 C 299.654 234.515,301.104 234.063,301.793 233.657 C 302.482 233.251,303.755 232.788,304.623 232.630 C 305.490 232.471,306.740 232.029,307.400 231.647 C 308.060 231.266,309.471 230.711,310.536 230.414 C 311.601 230.118,312.566 229.634,312.679 229.338 C 312.793 229.042,313.235 228.800,313.663 228.800 C 314.614 228.800,316.800 227.709,316.800 227.234 C 316.800 227.044,317.440 226.769,318.222 226.622 C 319.005 226.475,319.995 226.005,320.422 225.578 C 320.850 225.150,321.384 224.800,321.610 224.800 C 322.069 224.800,325.856 222.339,326.834 221.405 C 327.182 221.072,327.632 220.797,327.834 220.794 C 328.035 220.790,328.809 220.250,329.554 219.594 C 330.299 218.937,331.019 218.398,331.154 218.396 C 331.289 218.393,332.289 217.571,333.376 216.569 C 334.464 215.566,335.679 214.572,336.076 214.359 C 336.474 214.146,336.800 213.729,336.800 213.433 C 336.800 213.136,337.173 212.796,337.630 212.676 C 338.086 212.557,338.553 212.103,338.667 211.667 C 338.781 211.231,339.231 210.781,339.667 210.667 C 340.103 210.553,340.555 210.092,340.673 209.643 C 340.790 209.194,341.227 208.718,341.643 208.586 C 342.059 208.454,342.400 208.205,342.400 208.032 C 342.400 207.753,343.135 206.865,345.572 204.200 C 346.478 203.210,350.056 198.558,350.600 197.664 C 350.820 197.302,351.405 196.496,351.900 195.872 C 352.395 195.249,352.800 194.482,352.800 194.169 C 352.800 193.856,352.952 193.600,353.137 193.600 C 353.322 193.600,353.817 192.925,354.237 192.100 C 354.657 191.275,355.104 190.510,355.230 190.400 C 355.357 190.290,355.787 189.570,356.187 188.800 C 356.587 188.030,357.069 187.130,357.259 186.800 C 357.602 186.205,358.075 185.230,359.868 181.421 C 360.381 180.333,360.800 179.095,360.800 178.669 C 360.800 178.243,361.160 177.312,361.601 176.599 C 362.041 175.887,362.519 174.425,362.664 173.352 C 362.808 172.278,363.150 171.040,363.424 170.600 C 364.092 169.525,364.380 168.013,364.805 163.338 C 365.001 161.172,365.343 158.590,365.564 157.600 C 366.072 155.321,366.072 149.612,365.563 147.000 C 365.349 145.900,364.999 142.969,364.786 140.487 C 364.574 138.004,364.058 134.944,363.641 133.687 C 363.224 132.429,362.757 130.590,362.603 129.600 C 362.450 128.610,362.010 127.254,361.627 126.587 C 361.244 125.921,360.803 124.582,360.648 123.612 C 360.493 122.643,360.033 121.208,359.625 120.425 C 359.217 119.641,358.579 118.145,358.208 117.100 C 357.837 116.055,357.369 115.200,357.167 115.200 C 356.965 115.200,356.800 114.775,356.800 114.256 C 356.800 113.737,356.378 112.689,355.862 111.929 C 355.346 111.169,354.792 110.018,354.632 109.373 C 354.472 108.728,354.016 107.840,353.620 107.400 C 353.223 106.960,352.683 105.926,352.419 105.103 C 352.156 104.280,351.728 103.470,351.470 103.303 C 351.211 103.136,350.681 102.370,350.292 101.600 C 349.902 100.830,349.182 99.556,348.692 98.768 C 348.201 97.981,347.440 96.738,347.000 96.006 C 346.560 95.274,345.930 94.385,345.600 94.032 C 345.270 93.678,344.777 92.891,344.503 92.283 C 344.230 91.675,343.735 91.073,343.403 90.946 C 343.072 90.819,342.800 90.496,342.800 90.229 C 342.800 89.962,342.260 89.139,341.600 88.400 C 340.940 87.661,340.400 86.935,340.400 86.786 C 340.400 86.536,339.403 85.287,337.710 83.415 C 337.320 82.984,336.910 82.424,336.800 82.172 C 336.545 81.587,333.035 77.618,329.300 73.691 C 327.705 72.014,326.400 70.529,326.400 70.392 C 326.400 69.436,322.602 67.750,322.138 68.500 M331.355 77.783 C 337.487 84.634,345.559 95.481,348.387 100.670 C 348.845 101.511,349.599 102.830,350.061 103.600 C 366.396 130.810,368.768 160.286,356.611 185.000 C 342.721 213.240,315.297 232.294,280.600 237.812 C 279.720 237.952,277.110 238.406,274.800 238.820 C 267.571 240.116,253.824 241.562,242.800 242.185 C 236.970 242.514,230.940 242.875,229.400 242.987 C 227.860 243.098,211.930 243.464,194.000 243.798 C 162.360 244.389,157.711 244.564,141.200 245.781 C 80.999 250.222,57.293 271.007,61.677 315.506 C 62.474 323.599,62.010 323.393,53.327 311.800 C 49.940 307.278,42.395 294.976,40.938 291.600 C 40.796 291.270,40.108 289.740,39.409 288.200 C 38.288 285.728,37.664 284.220,35.357 278.400 C 20.169 240.089,37.098 199.093,78.400 174.164 C 91.654 166.165,111.082 159.644,130.800 156.576 C 132.890 156.251,136.220 155.714,138.200 155.382 C 153.386 152.841,169.850 152.083,246.407 150.405 C 256.640 150.180,267.350 149.742,270.207 149.430 C 273.063 149.119,277.650 148.651,280.400 148.390 C 283.150 148.129,286.210 147.753,287.200 147.555 C 288.190 147.357,291.044 146.835,293.543 146.395 C 296.041 145.955,298.254 145.490,298.460 145.363 C 298.666 145.235,300.132 144.797,301.717 144.388 C 304.942 143.556,309.916 141.883,311.054 141.248 C 311.464 141.019,312.790 140.382,314.000 139.832 C 329.889 132.616,336.760 117.518,332.853 98.400 C 331.807 93.285,329.778 86.031,328.946 84.437 C 328.648 83.867,328.404 83.160,328.402 82.867 C 328.400 82.372,327.119 79.189,325.129 74.735 C 324.601 73.552,324.389 72.499,324.550 71.856 C 324.843 70.689,325.581 71.332,331.355 77.783 M368.129 204.583 C 367.728 205.123,366.950 206.217,366.400 207.013 C 365.850 207.810,364.995 208.924,364.500 209.489 C 364.005 210.054,363.600 210.643,363.600 210.797 C 363.600 210.951,363.239 211.494,362.798 212.003 C 362.356 212.511,361.411 213.723,360.698 214.694 C 359.984 215.666,358.950 216.965,358.400 217.580 C 357.850 218.195,356.950 219.275,356.400 219.980 C 355.093 221.654,354.656 222.170,351.800 225.410 C 348.004 229.716,346.844 230.993,345.911 231.893 C 345.630 232.164,343.801 234.009,341.846 235.993 C 339.891 237.977,338.148 239.600,337.973 239.600 C 337.797 239.600,337.540 239.960,337.400 240.400 C 337.260 240.840,336.898 241.200,336.596 241.200 C 336.293 241.200,335.810 241.529,335.523 241.930 C 335.051 242.589,331.157 246.018,326.433 249.935 C 325.461 250.741,324.270 251.760,323.786 252.200 C 323.303 252.640,322.630 253.180,322.293 253.400 C 321.955 253.620,320.579 254.655,319.235 255.700 C 317.891 256.745,316.615 257.600,316.399 257.600 C 316.183 257.600,315.782 257.960,315.507 258.400 C 315.232 258.840,314.806 259.200,314.559 259.200 C 314.312 259.200,313.463 259.695,312.671 260.300 C 310.490 261.968,308.822 263.108,306.400 264.585 C 305.190 265.323,303.924 266.169,303.588 266.464 C 303.251 266.759,302.351 267.327,301.588 267.727 C 298.908 269.132,297.539 269.931,296.872 270.479 C 296.503 270.783,295.525 271.337,294.700 271.709 C 293.875 272.082,293.200 272.570,293.200 272.794 C 293.200 273.017,292.865 273.200,292.456 273.200 C 292.047 273.200,291.081 273.628,290.310 274.151 C 289.539 274.674,288.269 275.313,287.486 275.571 C 286.704 275.830,285.857 276.290,285.604 276.595 C 285.352 276.899,284.626 277.263,283.991 277.402 C 283.357 277.541,282.424 277.963,281.919 278.339 C 281.413 278.714,280.280 279.264,279.400 279.560 C 278.520 279.856,277.530 280.326,277.200 280.605 C 276.870 280.883,276.023 281.233,275.319 281.383 C 274.614 281.533,273.624 281.979,273.119 282.376 C 272.613 282.772,271.570 283.227,270.800 283.387 C 270.030 283.547,268.837 284.001,268.149 284.396 C 267.462 284.791,266.292 285.241,265.549 285.396 C 264.807 285.551,263.620 286.011,262.912 286.418 C 262.203 286.826,260.943 287.283,260.112 287.433 C 259.280 287.584,258.060 287.983,257.400 288.320 C 256.740 288.657,255.035 289.178,253.611 289.479 C 252.186 289.779,250.641 290.274,250.177 290.578 C 249.713 290.882,248.448 291.248,247.367 291.392 C 246.285 291.535,244.410 291.991,243.200 292.405 C 241.990 292.819,239.434 293.352,237.519 293.591 C 235.605 293.829,233.445 294.272,232.719 294.575 C 231.994 294.878,229.690 295.247,227.600 295.395 C 225.510 295.543,221.640 296.009,219.000 296.430 C 211.980 297.551,191.924 297.551,185.920 296.431 C 183.654 296.008,180.360 295.539,178.600 295.388 C 176.840 295.238,174.922 294.868,174.338 294.567 C 173.755 294.266,171.955 293.823,170.338 293.583 C 168.722 293.343,166.680 292.824,165.800 292.428 C 164.920 292.033,163.480 291.580,162.600 291.421 C 161.720 291.263,160.460 290.810,159.800 290.415 C 159.140 290.020,157.890 289.571,157.021 289.416 C 156.153 289.261,155.010 288.794,154.481 288.378 C 153.952 287.961,152.920 287.509,152.187 287.371 C 151.455 287.234,150.768 286.893,150.661 286.615 C 150.554 286.336,149.642 285.864,148.633 285.567 C 147.625 285.269,146.800 284.883,146.800 284.709 C 146.800 284.535,146.007 283.989,145.037 283.496 C 142.939 282.429,137.696 278.926,136.684 277.915 C 136.291 277.522,135.706 277.200,135.384 277.200 C 135.063 277.200,134.800 276.936,134.800 276.614 C 134.800 276.292,134.395 275.813,133.900 275.551 C 133.405 275.288,132.765 274.742,132.477 274.337 C 132.190 273.931,131.707 273.600,131.404 273.600 C 131.102 273.600,130.743 273.249,130.606 272.820 C 130.470 272.392,130.008 271.930,129.580 271.794 C 129.151 271.657,128.800 271.379,128.800 271.175 C 128.800 270.971,127.900 269.885,126.800 268.761 C 125.700 267.638,124.800 266.556,124.800 266.357 C 124.800 266.158,124.350 265.603,123.800 265.125 C 123.250 264.647,122.800 264.010,122.800 263.710 C 122.800 263.409,122.373 262.737,121.852 262.215 C 121.330 261.694,120.786 260.798,120.642 260.223 C 120.498 259.649,120.050 258.850,119.648 258.448 C 119.245 258.045,118.799 257.285,118.656 256.758 C 117.787 253.559,114.097 252.516,109.600 254.199 C 108.610 254.570,106.678 255.104,105.306 255.387 C 103.934 255.669,102.404 256.166,101.906 256.490 C 101.408 256.814,100.280 257.210,99.400 257.369 C 98.520 257.528,97.245 257.981,96.567 258.376 C 95.890 258.771,94.630 259.320,93.767 259.597 C 92.905 259.874,91.930 260.310,91.600 260.566 C 91.270 260.822,90.370 261.343,89.600 261.724 C 88.830 262.105,87.556 262.818,86.768 263.308 C 85.981 263.799,84.739 264.560,84.010 265.000 C 83.280 265.440,82.317 266.205,81.869 266.700 C 81.422 267.195,80.878 267.600,80.661 267.600 C 80.112 267.600,74.551 273.399,73.260 275.317 C 71.485 277.955,70.436 279.732,69.786 281.200 C 69.445 281.970,68.829 283.230,68.417 284.000 C 68.005 284.770,67.487 286.300,67.266 287.400 C 67.045 288.500,66.600 290.120,66.278 291.000 C 64.546 295.727,64.745 318.406,66.558 322.877 C 66.853 323.605,67.213 325.544,67.358 327.187 C 67.642 330.406,68.044 331.258,70.351 333.528 C 74.062 337.181,78.050 340.800,78.364 340.800 C 78.553 340.800,79.003 341.250,79.363 341.800 C 79.724 342.350,80.186 342.800,80.391 342.800 C 80.596 342.800,81.199 343.205,81.731 343.700 C 82.263 344.195,83.216 345.009,83.849 345.509 C 84.482 346.009,85.654 346.954,86.453 347.609 C 87.252 348.264,88.041 348.800,88.207 348.800 C 88.373 348.800,88.911 349.205,89.404 349.700 C 89.897 350.195,90.969 351.050,91.786 351.600 C 92.603 352.150,93.864 353.095,94.588 353.700 C 95.313 354.305,96.178 354.800,96.510 354.800 C 96.842 354.800,97.221 355.078,97.352 355.418 C 97.482 355.758,98.209 356.295,98.967 356.612 C 99.725 356.929,100.470 357.389,100.621 357.635 C 100.773 357.881,101.506 358.336,102.249 358.646 C 102.992 358.957,103.600 359.366,103.600 359.557 C 103.600 359.747,104.185 360.138,104.900 360.425 C 105.615 360.711,106.709 361.363,107.331 361.873 C 107.953 362.383,108.620 362.800,108.813 362.800 C 109.006 362.800,109.828 363.250,110.638 363.800 C 111.449 364.350,112.357 364.800,112.656 364.800 C 112.955 364.800,113.566 365.166,114.012 365.612 C 114.459 366.059,115.350 366.530,115.992 366.658 C 116.634 366.787,117.463 367.228,117.834 367.638 C 118.206 368.049,119.103 368.496,119.829 368.632 C 120.554 368.768,121.454 369.218,121.829 369.632 C 122.203 370.046,123.140 370.503,123.910 370.647 C 124.680 370.791,125.635 371.235,126.032 371.632 C 126.430 372.030,127.440 372.481,128.278 372.636 C 129.115 372.790,130.218 373.241,130.728 373.638 C 131.239 374.035,132.454 374.479,133.428 374.625 C 134.403 374.771,135.200 375.031,135.200 375.202 C 135.200 375.651,138.237 376.800,139.424 376.800 C 139.979 376.800,140.920 377.159,141.516 377.597 C 142.112 378.035,143.500 378.509,144.600 378.651 C 145.700 378.792,146.873 379.143,147.206 379.431 C 147.920 380.047,150.861 380.776,152.688 380.790 C 153.396 380.796,154.656 381.155,155.488 381.588 C 156.358 382.042,158.273 382.490,160.000 382.644 C 161.650 382.791,163.469 383.147,164.042 383.436 C 165.529 384.185,171.040 384.800,176.263 384.800 C 178.730 384.800,181.247 384.990,181.856 385.221 C 183.599 385.884,193.046 386.148,195.800 385.611 C 197.120 385.353,201.440 384.989,205.400 384.800 C 212.376 384.469,216.083 383.997,217.511 383.261 C 217.890 383.065,219.820 382.779,221.800 382.625 C 223.917 382.461,226.121 382.027,227.151 381.573 C 228.114 381.148,229.566 380.800,230.377 380.800 C 232.439 380.800,236.406 380.028,237.600 379.393 C 238.150 379.101,239.836 378.678,241.346 378.452 C 242.856 378.226,244.386 377.786,244.746 377.474 C 245.106 377.162,246.476 376.786,247.791 376.639 C 249.106 376.492,250.738 376.043,251.418 375.642 C 252.099 375.241,253.458 374.792,254.440 374.645 C 255.423 374.498,256.766 374.048,257.427 373.647 C 258.087 373.245,259.464 372.791,260.486 372.638 C 261.508 372.485,262.761 372.047,263.272 371.665 C 263.782 371.284,265.100 370.746,266.200 370.469 C 267.300 370.193,268.380 369.735,268.600 369.450 C 268.820 369.166,269.714 368.818,270.587 368.677 C 271.460 368.537,272.637 368.080,273.203 367.661 C 273.769 367.243,274.785 366.779,275.462 366.630 C 276.138 366.482,277.069 366.009,277.529 365.580 C 277.990 365.151,278.709 364.800,279.127 364.800 C 279.546 364.800,280.511 364.378,281.271 363.862 C 282.031 363.346,283.095 362.813,283.635 362.677 C 284.174 362.542,284.987 362.085,285.441 361.662 C 285.895 361.239,286.824 360.770,287.506 360.621 C 288.187 360.471,288.972 360.075,289.250 359.740 C 289.527 359.405,290.426 358.863,291.246 358.535 C 292.067 358.206,292.837 357.682,292.957 357.369 C 293.077 357.056,293.514 356.800,293.929 356.800 C 294.344 356.800,295.154 356.364,295.729 355.831 C 296.304 355.298,297.116 354.754,297.534 354.621 C 297.952 354.488,298.616 354.024,299.009 353.590 C 299.402 353.155,299.974 352.800,300.280 352.800 C 300.586 352.800,301.272 352.364,301.805 351.831 C 302.338 351.298,303.140 350.746,303.588 350.604 C 304.035 350.462,304.587 349.998,304.814 349.573 C 305.042 349.148,305.447 348.798,305.714 348.796 C 306.157 348.793,308.938 346.816,310.400 345.465 C 310.730 345.160,311.405 344.699,311.900 344.441 C 312.395 344.183,312.800 343.708,312.800 343.386 C 312.800 343.064,313.029 342.800,313.308 342.800 C 314.749 342.800,332.800 324.861,332.800 323.428 C 332.800 323.134,333.159 322.799,333.598 322.685 C 334.037 322.570,334.514 322.168,334.658 321.793 C 334.802 321.417,335.264 320.725,335.684 320.255 C 337.802 317.884,338.800 316.580,338.800 316.183 C 338.800 315.942,339.250 315.353,339.800 314.875 C 340.350 314.397,340.800 313.777,340.800 313.499 C 340.800 313.220,341.160 312.768,341.600 312.493 C 342.040 312.218,342.400 311.749,342.400 311.452 C 342.400 311.154,342.940 310.231,343.600 309.400 C 344.260 308.569,344.800 307.639,344.800 307.332 C 344.800 307.026,345.054 306.678,345.363 306.559 C 345.673 306.440,346.156 305.770,346.436 305.071 C 346.717 304.372,347.363 303.291,347.873 302.669 C 348.383 302.047,348.800 301.380,348.800 301.187 C 348.800 300.994,349.250 300.172,349.800 299.362 C 350.350 298.551,350.800 297.643,350.800 297.344 C 350.800 297.045,351.155 296.445,351.590 296.010 C 352.024 295.576,352.502 294.733,352.652 294.137 C 352.801 293.541,353.346 292.431,353.862 291.671 C 354.378 290.911,354.800 289.863,354.800 289.344 C 354.800 288.825,354.978 288.400,355.195 288.400 C 355.628 288.400,356.800 285.853,356.800 284.913 C 356.800 284.589,357.178 283.792,357.641 283.143 C 358.103 282.494,358.577 281.251,358.693 280.381 C 358.810 279.512,359.071 278.800,359.273 278.800 C 359.782 278.800,360.800 276.251,360.800 274.976 C 360.800 274.399,361.151 273.480,361.580 272.935 C 362.009 272.390,362.484 271.114,362.636 270.099 C 362.788 269.085,363.259 267.667,363.683 266.949 C 364.107 266.231,364.561 264.601,364.692 263.328 C 364.824 262.054,365.156 260.787,365.431 260.512 C 365.967 259.976,366.800 256.602,366.800 254.966 C 366.800 254.419,367.056 253.573,367.369 253.086 C 368.068 251.998,368.800 248.126,368.800 245.512 C 368.800 244.445,369.071 243.158,369.403 242.652 C 370.062 241.646,370.765 237.070,370.793 233.600 C 370.803 232.390,371.088 230.606,371.426 229.636 C 372.109 227.674,373.041 210.467,372.649 207.045 C 372.270 203.737,369.768 202.374,368.129 204.583 M371.186 205.974 C 371.907 207.321,371.665 214.365,370.379 229.400 C 369.981 234.049,369.030 240.209,367.754 246.400 C 367.414 248.050,366.800 251.067,366.389 253.104 C 365.979 255.141,365.539 256.975,365.412 257.180 C 365.286 257.385,364.759 259.138,364.242 261.076 C 362.697 266.864,361.541 270.576,361.160 270.980 C 360.962 271.189,360.800 271.598,360.800 271.889 C 360.800 273.034,356.770 282.970,353.372 290.200 C 350.383 296.561,342.080 310.526,339.103 314.200 C 338.924 314.420,337.761 315.950,336.516 317.600 C 328.531 328.189,315.017 341.375,304.946 348.404 C 303.760 349.231,296.104 354.329,294.400 355.425 C 290.251 358.094,281.457 362.690,274.400 365.876 C 273.190 366.423,271.856 367.054,271.435 367.279 C 271.015 367.504,269.755 368.016,268.635 368.417 C 267.516 368.818,265.160 369.706,263.400 370.391 C 261.640 371.075,258.400 372.235,256.200 372.969 C 247.607 375.834,246.375 376.186,238.600 378.002 C 236.620 378.465,234.010 379.102,232.800 379.419 C 231.590 379.736,229.430 380.183,228.000 380.412 C 226.570 380.641,224.320 381.081,223.000 381.390 C 221.680 381.699,218.800 382.157,216.600 382.409 C 214.400 382.661,211.320 383.118,209.756 383.426 C 202.422 384.865,178.553 384.866,170.600 383.427 C 168.840 383.109,165.960 382.642,164.200 382.390 C 162.440 382.138,159.560 381.583,157.800 381.157 C 152.248 379.815,145.438 377.972,144.400 377.530 C 143.850 377.296,142.320 376.777,141.000 376.375 C 137.935 375.443,133.141 373.643,132.609 373.226 C 132.384 373.049,131.480 372.678,130.600 372.401 C 129.720 372.123,128.550 371.667,128.000 371.386 C 127.450 371.105,124.840 369.852,122.200 368.601 C 117.611 366.426,106.905 360.625,104.800 359.172 C 104.250 358.792,102.180 357.437,100.200 356.161 C 89.112 349.013,71.144 334.156,69.307 330.617 C 68.970 329.966,68.265 326.996,67.741 324.017 C 64.840 307.530,65.447 294.085,69.537 284.200 C 75.370 270.104,88.395 260.719,109.472 255.423 C 115.847 253.822,115.953 253.862,118.770 258.989 C 140.925 299.304,208.481 310.373,271.800 284.065 C 308.865 268.665,342.011 242.431,365.503 209.900 C 369.051 204.987,370.224 204.176,371.186 205.974 " stroke="none" fill="#c4c4c4" fill-rule="evenodd"></path></g></svg>